<?xml version="1.0" standalone="no"?>
<!DOCTYPE svg PUBLIC "-//W3C//DTD SVG 20010904//EN"
 "http://www.w3.org/TR/2001/REC-SVG-20010904/DTD/svg10.dtd">
<svg version="1.0" xmlns="http://www.w3.org/2000/svg"
 width="7680.000000pt" height="3919.000000pt" viewBox="0 0 7680.000000 3919.000000"
 preserveAspectRatio="xMidYMid meet">
<metadata>
Created by potrace 1.16, written by Peter Selinger 2001-2019
</metadata>
<g transform="translate(0.000000,3919.000000) scale(0.100000,-0.100000)"
fill="#000000" stroke="none">
<path d="M31050 17271 c13 -10 13 -13 -2 -25 -10 -7 -18 -20 -18 -29 0 -8 8
-18 18 -20 13 -4 12 -5 -5 -6 -12 0 -24 5 -26 12 -3 6 -6 1 -6 -12 -1 -18 3
-22 17 -16 9 4 34 9 55 12 32 5 37 3 37 -15 0 -11 -5 -22 -12 -24 -8 -3 -8 -9
-1 -22 9 -16 11 -14 17 18 5 23 12 36 23 36 13 0 13 -3 3 -15 -11 -13 -8 -15
18 -15 23 0 30 4 26 14 -3 8 -1 17 5 21 6 3 9 0 6 -8 -4 -10 4 -13 32 -11 21
1 32 0 26 -3 -7 -2 -13 -11 -13 -19 0 -8 -4 -14 -10 -14 -5 0 -10 5 -10 10 0
6 -4 10 -10 10 -18 0 -11 -30 8 -31 12 0 13 -2 3 -6 -8 -3 -20 2 -26 11 -10
13 -12 9 -11 -23 1 -35 16 -50 16 -15 0 8 7 14 15 14 8 0 15 -4 15 -10 0 -5 4
-10 9 -10 5 0 7 10 4 23 -4 21 -3 21 21 -5 15 -17 31 -26 40 -22 9 3 16 2 16
-4 0 -5 -7 -13 -16 -16 -22 -8 -7 -26 22 -26 13 0 24 -4 24 -9 0 -5 9 -11 20
-14 29 -8 27 -54 -2 -60 -13 -3 -5 -5 17 -5 22 1 46 0 53 -1 17 -2 15 -21 -3
-21 -8 0 -15 -4 -15 -9 0 -6 9 -9 20 -8 14 1 20 9 22 27 0 14 4 5 7 -19 7 -50
31 -70 30 -24 0 25 -1 26 -9 8 -7 -16 -9 -12 -9 18 -1 34 1 37 14 23 8 -8 15
-21 15 -28 0 -8 5 -19 12 -26 9 -9 9 -12 -2 -12 -9 0 -8 -5 5 -20 10 -11 22
-17 27 -14 6 4 5 10 -3 14 -10 7 -9 11 3 24 17 17 29 11 21 -10 -3 -8 -1 -14
5 -14 5 0 12 7 16 15 3 8 11 15 18 14 10 0 10 -2 1 -6 -18 -7 -16 -23 2 -23 9
0 12 -6 9 -15 -4 -10 0 -15 13 -15 25 0 35 -10 24 -24 -5 -6 -5 -20 0 -31 7
-18 8 -18 9 5 l1 25 12 -23 c7 -12 16 -20 20 -16 4 4 2 13 -4 21 -22 26 8 12
36 -17 16 -16 24 -30 18 -30 -16 0 -25 -32 -13 -44 7 -7 10 -5 10 7 0 11 8 17
23 16 16 -1 18 -2 5 -6 -29 -7 -21 -22 12 -21 18 1 31 7 33 17 3 10 6 6 7 -9
l2 -25 8 25 c7 23 8 23 9 3 1 -12 -4 -25 -9 -28 -6 -4 -7 -11 -4 -17 4 -6 9
-5 15 3 14 24 21 2 10 -38 -9 -32 -8 -35 3 -20 16 21 36 22 36 1 0 -8 5 -12
10 -9 6 3 10 1 10 -4 0 -6 5 -11 10 -11 6 0 8 11 4 25 -4 15 -2 25 4 25 6 0
12 -17 14 -37 2 -21 9 -38 18 -41 13 -5 13 -3 1 12 -11 13 -11 20 -3 28 9 9
12 7 12 -7 0 -15 3 -16 12 -7 19 19 48 14 79 -15 30 -29 36 -43 19 -43 -5 0
-10 7 -10 15 0 32 -17 13 -18 -20 -1 -19 3 -35 8 -35 6 0 11 -10 11 -22 1 -19
2 -20 6 -4 3 10 0 23 -6 29 -18 18 -12 32 14 33 15 1 25 -3 25 -12 0 -8 -4
-14 -9 -14 -5 0 -7 -9 -4 -20 7 -26 19 -17 26 20 4 16 11 30 17 30 14 0 12
-27 -2 -33 -8 -3 -7 -6 4 -6 9 -1 20 4 24 10 4 8 9 7 15 -2 8 -12 11 -11 19 1
8 12 10 9 10 -14 0 -28 -1 -28 -18 -13 -24 22 -37 9 -15 -15 15 -17 15 -18 0
-18 -10 0 -17 -8 -17 -17 0 -15 2 -16 10 -3 7 12 12 12 22 2 9 -9 9 -12 0 -12
-6 0 -9 -7 -6 -15 4 -8 10 -15 16 -15 5 0 6 5 3 10 -15 24 67 24 104 1 12 -8
13 -12 1 -25 -15 -19 -7 -31 15 -22 13 4 15 13 10 36 -5 24 -3 30 10 30 11 0
15 -5 12 -15 -8 -19 10 -29 48 -27 l30 2 -27 -16 c-24 -12 -28 -21 -28 -56 0
-38 1 -40 18 -26 9 9 27 19 40 22 12 4 22 12 22 19 0 8 -3 8 -12 -1 -15 -15
-58 -16 -58 -2 0 6 6 10 14 10 7 0 28 3 45 6 24 5 31 3 29 -7 -2 -8 6 -14 17
-15 36 -2 39 -4 21 -17 -11 -8 -17 -23 -14 -38 3 -25 19 -29 70 -16 21 6 32 2
50 -16 24 -24 68 -31 80 -13 5 7 8 4 8 -6 0 -14 8 -18 34 -18 29 0 33 -3 29
-20 -6 -21 -18 -26 -27 -12 -7 11 -51 8 -51 -4 0 -5 19 -12 43 -15 32 -4 42
-2 42 8 0 8 5 11 10 8 6 -4 8 -10 5 -15 -8 -13 13 -50 28 -50 7 0 6 4 -3 10
-11 7 -6 10 22 10 28 0 36 -3 32 -14 -3 -8 -11 -13 -17 -10 -20 7 -44 -13 -31
-26 7 -7 14 -8 18 -2 7 11 56 4 56 -9 0 -5 12 -15 28 -23 19 -11 22 -15 10
-16 -10 0 -18 -5 -18 -11 0 -7 9 -9 24 -5 15 4 28 0 36 -9 16 -19 36 -19 44 0
6 17 36 21 36 5 0 -5 -4 -10 -10 -10 -5 0 -10 -7 -10 -15 0 -12 7 -14 27 -9
22 6 25 4 20 -10 -4 -10 -3 -15 3 -11 6 3 10 -2 10 -11 0 -15 2 -16 13 -5 10
11 9 14 -1 18 -10 4 -10 8 -1 19 15 18 29 18 29 -1 0 -8 5 -15 10 -15 6 0 10
-9 10 -20 0 -11 5 -20 10 -20 6 0 10 -7 10 -16 0 -14 -8 -16 -42 -11 -29 4
-37 3 -23 -3 11 -5 33 -9 49 -9 27 -1 28 1 22 30 -6 34 9 37 28 5 9 -14 6 -21
-13 -37 -13 -10 -19 -19 -13 -19 6 0 13 -10 15 -22 3 -17 5 -13 7 12 l3 35 7
-40 7 -40 2 42 c1 42 1 42 34 36 40 -7 44 -10 29 -25 -17 -17 -15 -38 3 -38 8
0 15 9 15 20 0 13 5 18 15 14 8 -4 15 -12 15 -20 0 -17 51 -19 68 -2 7 7 12 9
12 4 0 -18 -31 -36 -61 -36 -58 0 -22 -12 48 -16 95 -6 115 -11 111 -32 -1 -9
1 -23 6 -30 5 -9 3 -13 -5 -11 -8 1 -25 0 -39 -1 -21 -2 -19 -4 10 -9 19 -4
40 -4 45 0 19 12 55 17 55 7 0 -5 10 -6 21 -3 16 5 20 3 17 -6 -3 -8 -10 -14
-16 -14 -5 0 -14 -3 -18 -7 -4 -5 5 -8 19 -8 35 0 35 -18 0 -22 -16 -2 -33 3
-40 12 -6 8 -15 11 -19 7 -5 -4 -2 -12 6 -17 13 -8 12 -10 -2 -10 -10 0 -18
-4 -18 -10 0 -12 13 -13 24 -3 4 4 27 8 51 9 38 2 45 0 45 -17 0 -15 7 -19 31
-19 17 0 28 4 24 10 -3 6 -14 10 -25 10 -10 0 -21 7 -24 16 -9 24 0 28 25 11
11 -9 28 -13 35 -10 10 3 14 -2 14 -18 0 -16 3 -20 8 -12 6 9 18 0 40 -29 18
-23 32 -35 32 -27 0 12 2 12 10 -1 5 -8 12 -11 17 -7 9 9 -17 28 -29 21 -11
-7 -10 1 4 31 14 32 28 32 52 0 10 -14 27 -25 37 -25 10 0 21 -4 24 -10 3 -5
13 -10 21 -10 8 0 13 4 10 8 -2 4 10 9 27 9 29 2 30 1 10 -7 -13 -5 -23 -15
-23 -21 0 -7 -10 -9 -25 -7 -14 3 -28 1 -31 -3 -3 -5 9 -9 25 -9 17 0 31 -5
31 -11 0 -5 -4 -7 -10 -4 -5 3 -17 2 -26 -3 -13 -7 -5 -11 31 -16 26 -4 53
-10 60 -12 8 -4 11 3 8 19 -3 15 1 26 10 30 12 4 14 -2 10 -33 -5 -36 -4 -38
16 -33 12 3 24 9 27 14 9 15 24 10 24 -7 0 -12 7 -15 25 -12 14 3 25 1 25 -3
0 -5 9 -9 20 -9 14 0 20 -7 20 -21 0 -15 -4 -19 -19 -14 -11 3 -22 1 -26 -5
-4 -6 4 -10 19 -10 14 0 26 -4 26 -9 0 -13 37 -24 50 -16 8 5 7 11 -1 21 -9
11 -7 14 10 14 12 0 20 -4 17 -9 -11 -17 5 -39 25 -34 14 4 19 0 19 -16 0 -12
-6 -21 -16 -21 -8 0 -12 -5 -8 -11 4 -8 9 -8 17 0 6 6 19 11 28 11 10 0 19 3
22 8 2 4 2 1 1 -5 -2 -7 1 -13 6 -13 6 0 11 5 11 10 1 6 2 14 3 19 3 21 16 23
16 3 0 -29 17 -28 23 1 4 21 4 21 6 1 0 -12 11 -26 24 -32 20 -11 20 -12 -8
-7 -18 3 -38 0 -48 -8 -16 -11 -10 -13 45 -11 78 2 88 4 66 12 -16 7 -16 8 3
20 12 8 18 9 15 4 -3 -5 8 -12 25 -16 28 -5 30 -8 18 -22 -8 -10 -15 -12 -17
-5 -2 6 -8 11 -13 11 -6 0 -5 -8 1 -20 6 -11 8 -25 5 -30 -10 -16 0 -12 25 10
18 15 27 17 43 9 15 -9 17 -13 6 -20 -11 -6 -10 -9 4 -15 9 -3 17 -12 17 -20
0 -8 7 -14 15 -14 18 0 19 12 3 28 -16 16 17 42 52 41 l25 -1 -25 -8 -25 -7
27 -8 c35 -9 28 -24 -9 -18 l-28 4 28 -16 c15 -9 27 -20 27 -25 0 -15 21 -12
42 7 10 9 21 13 25 9 4 -3 -2 -14 -14 -23 -18 -15 -19 -19 -6 -45 9 -16 23
-28 34 -28 19 0 25 11 12 23 -10 11 -13 57 -2 57 5 0 9 7 9 16 0 8 4 13 10 9
5 -3 7 -12 3 -20 -3 -9 1 -15 11 -15 9 0 16 -5 16 -11 0 -6 -7 -9 -15 -5 -9 3
-15 0 -15 -9 0 -8 6 -12 14 -9 8 3 17 1 21 -5 3 -7 -2 -11 -14 -11 -12 0 -21
-5 -21 -11 0 -7 9 -9 21 -6 12 3 32 2 45 -3 18 -7 26 -5 32 7 7 12 11 13 17 2
5 -7 4 -14 -3 -17 -13 -4 -6 -22 8 -22 5 0 16 12 24 28 l15 27 1 -26 c0 -14
-9 -35 -20 -47 -11 -11 -16 -24 -11 -27 5 -3 13 0 17 6 4 8 9 7 15 -2 6 -10 9
-4 9 19 0 21 5 32 15 32 9 0 12 -6 9 -15 -4 -8 -1 -21 5 -29 6 -7 8 -22 4 -32
-6 -18 -5 -18 13 -3 10 9 27 19 37 22 9 4 17 11 17 17 0 5 4 10 10 10 5 0 7
-7 4 -15 -7 -18 17 -20 33 -4 6 6 17 9 25 6 8 -3 3 -8 -13 -15 -25 -10 -48
-42 -30 -42 5 0 11 7 15 15 3 8 16 15 28 15 19 0 20 -2 8 -11 -11 -8 -7 -9 17
-5 29 5 32 3 36 -22 4 -26 5 -26 12 -5 4 12 13 19 20 17 7 -3 15 2 18 10 4 11
18 16 39 15 24 -1 27 -3 10 -6 -18 -4 -52 -55 -52 -79 0 -13 20 0 25 16 3 11
11 20 17 20 7 0 6 -5 -2 -14 -9 -12 -6 -16 23 -21 23 -5 37 -14 40 -26 4 -15
15 -19 49 -20 23 -1 35 -3 26 -6 -10 -2 -18 -9 -18 -14 0 -11 64 -2 93 13 13
6 17 5 17 -7 0 -9 5 -13 11 -9 6 3 15 0 20 -7 8 -12 11 -12 20 1 7 10 12 11
15 4 3 -7 14 -10 24 -7 11 3 20 0 20 -6 0 -6 -7 -11 -15 -11 -8 0 -15 -5 -15
-11 0 -6 17 -9 45 -6 35 4 45 2 45 -10 0 -8 -5 -11 -12 -7 -7 5 -9 2 -5 -8 3
-9 1 -20 -5 -26 -6 -6 -6 -12 1 -16 6 -4 11 -3 11 3 0 6 7 7 17 4 10 -4 14 -2
9 5 -3 6 -1 14 5 18 6 4 9 19 5 36 -3 18 -2 27 4 23 6 -3 10 -21 10 -40 0 -20
6 -35 15 -39 9 -3 12 -12 8 -23 -4 -13 0 -11 15 6 l22 24 19 -21 c10 -12 23
-22 30 -22 6 0 11 -9 11 -20 0 -11 5 -20 10 -20 6 0 10 9 10 20 0 15 7 20 25
20 14 0 25 -4 25 -10 0 -5 7 -10 15 -10 8 0 15 -4 15 -9 0 -13 -40 -9 -40 4 0
5 -5 2 -11 -8 -16 -27 -4 -32 39 -19 23 8 38 8 40 2 7 -20 20 -9 26 20 3 17
10 30 16 30 13 0 13 -17 0 -25 -17 -10 -12 -48 5 -41 8 3 15 1 15 -4 0 -5 -8
-11 -17 -13 -17 -4 -17 -5 0 -6 9 0 17 -6 17 -12 0 -20 25 -37 36 -25 12 13 7
37 -9 48 -14 8 -18 38 -6 38 5 0 9 -7 9 -16 0 -12 6 -15 25 -10 17 4 30 0 45
-16 11 -12 20 -16 20 -9 0 7 5 9 10 6 8 -5 7 -11 -1 -21 -9 -11 -7 -14 14 -14
19 0 26 -6 29 -22 2 -16 11 -23 36 -25 17 -2 32 0 32 5 0 5 9 12 21 15 24 6
51 -1 44 -13 -6 -10 49 1 55 11 3 4 12 4 20 -1 13 -8 13 -10 -1 -10 -25 0 -31
-56 -7 -57 20 -2 23 8 7 24 -7 7 -7 13 -1 17 6 3 13 2 17 -4 3 -5 15 -10 26
-10 10 0 19 -4 19 -10 0 -5 8 -10 18 -10 15 -1 15 -2 -2 -15 -18 -14 -17 -15
22 -15 42 0 43 0 39 -33 -2 -18 -7 -38 -11 -45 -4 -7 -2 -12 3 -12 6 0 11 5
11 10 0 10 21 8 74 -7 16 -4 18 -1 14 21 -4 18 -1 26 9 26 10 0 13 6 9 16 -7
19 3 64 14 64 5 0 10 -10 12 -22 2 -13 11 -24 20 -26 13 -2 15 2 11 20 -4 13
-11 26 -16 29 -13 9 1 29 21 29 12 0 13 -3 5 -11 -12 -12 -9 -27 10 -68 9 -19
9 -25 0 -28 -7 -3 -13 -12 -14 -21 0 -15 -1 -15 -7 -1 -5 11 -14 13 -32 8 -17
-5 -19 -7 -7 -8 10 -1 20 -7 22 -13 7 -17 56 -20 53 -4 -2 6 2 13 7 14 6 1 10
-1 10 -5 0 -5 5 -15 10 -23 5 -8 11 -24 12 -34 5 -28 13 -33 13 -8 0 13 6 22
15 22 8 0 15 -4 15 -9 0 -4 14 -7 31 -5 16 2 27 0 24 -5 -3 -5 -1 -12 5 -16 8
-5 30 32 30 51 0 9 -22 3 -36 -10 -23 -23 -54 -8 -54 26 0 26 -3 30 -23 26
-20 -4 -23 -1 -20 21 2 14 0 20 -3 14 -3 -7 -10 -13 -15 -13 -14 0 -11 26 5
39 12 10 15 6 21 -17 5 -24 13 -32 45 -40 26 -6 42 -6 49 1 8 8 11 7 11 -2 0
-7 11 -22 25 -33 19 -15 23 -23 15 -33 -7 -8 -7 -21 0 -39 13 -35 15 -33 15
11 0 31 4 38 20 38 14 0 21 8 23 28 2 15 8 27 14 27 5 0 8 -7 5 -15 -4 -8 -2
-17 3 -20 18 -11 10 -26 -20 -36 -30 -11 -36 -20 -23 -32 3 -4 11 1 18 9 8 12
19 14 35 9 17 -5 19 -9 9 -16 -7 -4 -10 -11 -7 -15 9 -9 78 5 78 15 0 5 15 11
33 15 25 5 29 9 17 16 -11 7 -5 8 20 4 20 -3 30 -2 24 3 -16 12 -26 61 -14 68
5 3 7 0 4 -9 -4 -11 0 -13 15 -9 12 3 21 1 21 -6 0 -6 -4 -11 -10 -11 -5 0
-10 -5 -10 -10 0 -6 10 -8 24 -4 13 3 27 1 30 -5 4 -7 -1 -11 -13 -11 -11 0
-23 -4 -26 -10 -3 -5 2 -10 12 -10 14 0 15 -2 4 -9 -9 -6 -24 -5 -39 0 -29 11
-43 3 -22 -12 8 -6 39 -8 68 -5 32 3 52 1 52 -6 0 -5 -7 -8 -15 -4 -8 3 -15 1
-15 -5 0 -5 -11 -7 -24 -3 -13 3 -27 1 -30 -4 -3 -5 6 -13 19 -16 14 -4 23
-11 20 -16 -3 -6 -1 -10 4 -10 6 0 11 5 11 12 0 6 6 4 13 -6 15 -20 48 -19 55
3 3 10 -2 11 -19 6 l-24 -7 25 23 c13 13 27 24 30 24 3 0 11 4 19 9 10 7 21 2
36 -16 16 -19 26 -23 43 -17 23 9 30 35 10 41 -18 6 -1 38 19 37 17 0 16 -1
-1 -8 -16 -6 -16 -9 -5 -22 15 -15 21 -99 7 -99 -4 0 -8 -5 -8 -11 0 -7 9 -9
21 -6 15 4 19 2 15 -9 -3 -8 -1 -14 5 -14 6 0 13 9 16 20 6 21 36 35 53 25 17
-10 11 -25 -9 -25 -47 0 -19 -29 33 -34 5 -1 10 -14 12 -30 6 -61 16 -37 11
27 -5 60 -4 67 12 67 25 0 33 -11 19 -27 -6 -7 -8 -17 -4 -21 4 -4 15 4 25 16
9 13 20 20 24 16 4 -4 -1 -16 -10 -27 -18 -19 -17 -20 29 -15 42 5 48 3 54
-15 4 -12 2 -23 -5 -25 -16 -5 -14 -42 3 -42 9 0 12 7 9 21 -5 18 -3 20 15 15
15 -5 22 -2 27 14 3 11 13 20 20 20 8 0 19 8 24 18 7 14 19 17 55 14 25 -2 46
-9 46 -14 0 -6 -7 -8 -15 -4 -21 8 -45 -3 -45 -21 0 -13 -3 -13 -15 -3 -13 10
-15 9 -15 -8 0 -12 6 -25 14 -29 7 -4 15 -13 17 -20 6 -17 25 -3 33 25 6 17 3
22 -10 22 -14 0 -15 3 -6 12 9 9 15 9 23 1 6 -6 19 -9 28 -6 13 4 14 3 1 -5
-12 -9 -8 -16 20 -41 19 -17 43 -31 53 -31 9 0 17 -6 17 -14 0 -7 7 -20 17
-27 15 -13 16 -11 9 14 -4 19 -2 35 6 44 13 16 14 19 16 61 3 36 20 25 20 -13
0 -19 -4 -35 -10 -35 -5 0 -8 -15 -6 -32 2 -20 8 -32 16 -30 11 2 17 -16 13
-45 -1 -7 5 -13 14 -13 13 0 20 18 16 43 -2 11 17 9 24 -3 11 -18 21 -11 23
16 2 22 -1 24 -12 15 -9 -7 -17 -8 -20 -2 -3 5 -15 7 -26 4 -17 -4 -20 0 -20
23 0 22 3 25 10 14 5 -8 13 -11 17 -6 4 4 0 13 -10 20 -25 19 -21 26 8 13 17
-8 24 -18 21 -29 -2 -11 2 -18 10 -18 8 0 14 6 14 13 1 7 6 5 14 -5 14 -20 36
-24 36 -8 0 6 7 10 16 10 10 0 14 6 10 15 -3 8 -1 15 4 15 10 0 14 -20 12 -52
-1 -10 5 -18 13 -18 8 0 15 -4 15 -10 0 -5 7 -10 16 -10 10 0 14 -7 12 -22 -2
-11 3 -23 10 -25 7 -3 12 4 12 16 0 12 6 21 14 21 8 0 17 8 20 17 5 12 9 14
18 5 21 -21 28 -13 23 26 -3 24 -2 30 3 18 6 -14 11 -16 16 -7 6 9 11 9 22 0
22 -18 18 -42 -6 -34 -11 4 -20 2 -20 -4 0 -6 16 -11 35 -11 32 0 35 -3 35
-27 l0 -28 30 35 c25 29 32 32 40 20 15 -23 12 -29 -10 -23 -23 6 -27 -15 -7
-36 10 -10 8 -12 -8 -11 -36 4 -55 0 -55 -10 0 -11 49 -14 74 -4 9 3 16 12 16
19 0 7 7 15 15 19 17 6 21 36 4 36 -5 0 -8 4 -4 9 3 6 -4 15 -15 21 -11 6 -18
16 -14 22 4 5 0 14 -7 19 -11 7 -10 9 4 9 9 0 17 -6 17 -14 0 -21 19 -30 35
-16 18 15 29 -4 16 -28 -6 -11 -6 -23 -1 -28 4 -5 10 -25 12 -44 3 -32 36 -80
55 -80 4 0 2 5 -5 12 -16 16 -15 35 1 41 6 2 2 2 -10 0 -17 -2 -23 1 -23 16 0
10 7 22 16 25 8 3 12 10 9 16 -4 6 -11 8 -16 5 -5 -4 -9 -1 -9 4 0 6 9 11 20
11 23 0 27 15 5 24 -8 3 -15 10 -15 16 0 5 7 10 15 10 8 0 15 5 15 10 0 6 5
10 11 10 6 0 8 -9 3 -22 -6 -19 -5 -20 8 -7 8 8 18 21 22 29 3 8 4 4 2 -9 -3
-13 -1 -32 5 -42 6 -11 5 -20 -1 -24 -5 -3 -10 2 -11 12 0 14 -3 12 -10 -6 -7
-18 -6 -27 3 -33 10 -6 9 -8 -4 -8 -9 0 -20 -5 -24 -11 -4 -7 2 -9 17 -7 13 2
27 10 30 18 5 11 8 10 18 -8 10 -18 9 -22 -4 -22 -17 0 -19 -9 -6 -29 10 -15
32 -6 30 12 -4 29 2 47 15 47 9 0 12 -7 9 -18 -4 -16 2 -18 50 -18 31 1 50 4
44 8 -8 5 -6 9 5 13 10 4 22 4 28 0 16 -10 12 -33 -7 -38 -11 -3 -7 -5 10 -6
15 0 26 2 26 7 -1 4 0 10 1 15 1 4 3 12 4 19 2 20 24 20 36 -1 9 -18 8 -21
-10 -21 -11 0 -20 -5 -20 -10 0 -6 16 -8 41 -4 47 8 89 -10 89 -38 0 -10 -4
-18 -10 -18 -5 0 -10 -5 -10 -10 0 -6 6 -6 18 1 20 13 44 58 36 70 -3 5 3 9
14 9 15 0 18 5 14 25 -5 29 -17 32 -31 8 -8 -14 -9 -11 -5 15 4 21 3 32 -5 32
-7 0 -9 -5 -6 -10 6 -10 -22 -26 -31 -18 -8 8 7 38 20 38 14 0 38 38 31 49 -3
5 3 7 12 5 22 -5 44 13 60 46 11 24 12 24 6 -7 -4 -22 0 -37 11 -48 20 -21 21
-45 0 -45 -11 0 -14 6 -8 23 3 12 3 19 -1 15 -5 -4 -14 -3 -22 4 -7 6 -17 7
-21 3 -4 -4 -1 -10 6 -12 6 -3 12 -9 12 -15 0 -6 -6 -6 -15 2 -12 10 -18 10
-30 0 -20 -17 -14 -35 11 -35 14 0 20 -8 22 -32 2 -17 10 -34 18 -37 11 -4 14
3 14 31 0 29 3 34 12 25 7 -7 23 -12 37 -12 25 -1 25 -1 5 -13 -15 -9 -19 -18
-14 -37 l6 -25 19 32 c12 20 23 29 33 25 12 -4 10 -7 -6 -13 -27 -10 -32 -73
-6 -83 8 -3 12 -10 9 -16 -4 -6 5 -10 21 -10 23 0 25 -2 14 -17 -7 -10 6 2 30
26 36 38 41 47 31 63 -15 24 -14 28 5 28 10 0 14 -6 10 -15 -3 -9 0 -15 9 -15
8 0 15 9 15 20 0 13 -7 20 -20 20 -21 0 -27 15 -10 25 6 4 17 1 25 -5 12 -10
15 -9 15 3 0 8 7 20 15 27 13 11 15 10 12 -6 -2 -11 -7 -27 -12 -36 -4 -10 -4
-25 -1 -33 3 -9 -1 -18 -9 -21 -17 -7 -18 -13 -6 -33 7 -11 13 -12 23 -4 13
11 48 17 78 13 10 -1 7 -4 -7 -10 -16 -7 -20 -15 -16 -32 4 -18 3 -20 -6 -8
-9 13 -14 13 -32 2 -18 -12 -23 -12 -30 0 -5 8 -9 8 -9 2 0 -22 29 -38 44 -25
10 8 16 9 21 1 13 -21 27 -9 23 20 -3 17 -2 30 2 30 12 0 33 -48 26 -59 -4 -6
-5 -11 -1 -11 12 0 22 45 13 58 -8 8 -6 12 5 12 9 0 18 -8 20 -17 4 -14 5 -14
6 3 0 12 8 27 16 34 12 10 16 8 25 -14 6 -16 15 -24 23 -20 17 6 34 -45 19
-55 -6 -4 -4 -11 4 -18 7 -7 15 -9 19 -4 3 5 -1 12 -7 14 -10 4 -10 6 0 6 6 1
12 8 12 16 0 18 16 20 23 3 4 -10 7 -10 15 0 6 9 9 3 9 -18 0 -16 -4 -30 -9
-30 -5 0 -6 -5 -3 -10 10 -16 27 0 22 21 -3 10 -2 21 3 24 9 6 20 -19 20 -46
0 -14 7 -19 25 -19 14 0 25 5 25 10 0 6 -9 10 -20 10 -11 0 -20 5 -20 10 0 6
12 10 28 10 25 1 23 3 -18 24 -28 14 -44 29 -44 40 1 9 -2 16 -7 16 -5 0 -9
-7 -9 -15 0 -20 -10 -19 -25 2 -16 22 -8 43 15 43 10 0 21 6 23 13 3 7 6 5 6
-5 1 -12 -6 -18 -19 -18 -11 0 -20 -5 -20 -10 0 -14 53 0 63 17 4 7 15 13 24
13 14 0 14 -2 -3 -15 -11 -8 -14 -15 -6 -15 6 0 12 -11 12 -25 0 -14 4 -25 8
-25 4 0 8 12 7 28 0 23 4 27 25 25 14 -1 18 0 8 3 -24 7 -23 24 1 24 33 0 51
-11 51 -31 0 -11 7 -19 16 -19 11 0 14 -6 9 -20 -5 -14 -2 -20 9 -20 11 0 16
-9 16 -29 0 -32 13 -47 31 -36 7 5 4 14 -7 26 -24 26 -5 60 45 82 51 23 69 21
41 -3 -13 -11 -20 -23 -16 -27 4 -4 10 -3 14 3 6 10 52 27 77 29 6 0 16 4 23
9 7 4 12 4 11 -1 -1 -4 -1 -17 0 -28 1 -18 2 -18 14 4 19 39 33 36 29 -6 -4
-37 -3 -37 12 -17 8 12 28 25 43 29 15 3 31 12 35 18 6 9 8 9 8 0 0 -7 9 -13
20 -13 11 0 20 -4 20 -10 0 -5 -10 -10 -21 -10 -16 0 -20 -5 -16 -20 3 -10 1
-20 -3 -22 -4 -2 -11 -14 -15 -26 l-7 -24 21 21 c12 12 30 21 41 21 13 0 17 5
14 14 -7 19 14 58 27 50 6 -3 20 2 31 13 15 13 22 15 25 6 5 -15 43 -18 43 -4
0 5 7 11 14 14 10 4 13 1 9 -9 -3 -8 0 -21 7 -29 7 -8 10 -22 6 -30 -7 -18 0
-19 18 -3 10 10 9 15 -6 28 -13 11 -15 19 -8 30 9 13 10 13 10 0 0 -12 10 -14
45 -12 47 4 57 14 28 31 -14 8 -4 9 35 7 63 -4 74 -11 32 -19 -16 -4 -30 -13
-30 -20 0 -19 -33 -47 -56 -47 -10 0 -26 -5 -34 -11 -11 -7 -4 -8 24 -3 39 7
39 7 32 -22 -4 -16 -3 -24 2 -17 5 8 21 10 45 6 41 -6 50 -23 13 -23 -32 0
-56 -10 -56 -23 0 -6 3 -7 7 -4 3 4 12 -1 19 -11 13 -16 13 -16 14 1 0 9 5 17
10 17 6 0 9 -3 8 -7 -2 -5 2 -8 7 -8 6 0 9 3 8 7 -1 3 13 6 32 5 19 -1 35 -5
35 -9 0 -4 6 -8 14 -8 11 0 12 -5 3 -25 -12 -25 -50 -41 -69 -29 -7 5 -8 2 -3
-5 4 -8 17 -10 32 -6 14 3 31 1 39 -6 10 -8 14 -8 14 0 0 6 -4 11 -10 11 -14
0 0 32 23 53 23 20 19 28 -14 29 -13 1 -29 5 -35 10 -7 5 -16 7 -20 6 -13 -4
-54 39 -54 57 0 8 -5 15 -11 15 -5 0 -7 5 -3 12 5 8 10 7 18 -3 16 -20 86 -12
107 12 14 16 18 17 23 4 3 -8 12 -15 20 -15 10 0 13 -6 10 -15 -5 -11 -2 -13
10 -9 12 5 15 2 10 -10 -9 -22 18 -21 33 2 20 34 3 78 -29 73 -5 0 -8 3 -8 9
0 5 7 10 15 10 8 0 15 5 15 10 0 6 5 10 10 10 6 0 10 -11 10 -25 0 -14 5 -25
10 -25 6 0 10 11 10 25 0 16 5 23 13 19 34 -13 93 -10 104 5 11 14 13 14 27 1
14 -14 13 -18 -9 -42 -14 -15 -25 -32 -25 -38 0 -18 -24 -37 -39 -32 -8 3 -11
0 -7 -7 9 -14 36 -15 36 -1 0 6 12 10 28 10 19 0 23 3 14 9 -13 8 -10 21 16
61 2 2 8 -2 13 -10 8 -11 12 -12 16 -2 2 6 17 12 33 12 16 0 31 -6 34 -12 3
-9 8 -8 16 5 12 19 30 14 30 -9 0 -8 -9 -14 -20 -14 -11 0 -20 -5 -20 -10 0
-6 -11 -3 -25 6 -30 20 -49 9 -21 -12 11 -8 39 -13 62 -12 44 1 74 -17 66 -40
-2 -6 3 -12 12 -12 22 0 20 27 -4 47 -11 10 -20 23 -20 31 0 7 -7 23 -16 37
-12 18 -13 28 -4 44 13 26 70 30 70 6 0 -9 -7 -15 -16 -13 -12 2 -18 -6 -21
-24 -4 -28 10 -38 23 -16 5 8 11 6 20 -7 12 -16 15 -16 28 -2 12 12 13 17 3
20 -6 3 5 6 25 6 27 1 40 7 48 21 6 11 21 20 34 20 13 0 26 7 30 15 3 8 13 15
21 15 9 0 13 5 10 10 -3 6 4 10 17 10 13 0 19 -4 13 -8 -13 -9 -16 -42 -4 -42
5 0 9 -7 9 -15 0 -8 4 -15 10 -15 5 0 7 14 5 30 -2 17 1 30 7 30 6 0 1 8 -10
19 -12 10 -22 23 -22 30 0 6 -9 11 -20 11 -14 0 -18 -5 -14 -17 5 -15 4 -16
-5 -3 -8 10 -13 12 -18 4 -5 -6 -21 -14 -37 -18 -23 -6 -27 -4 -23 8 8 21 -3
20 -33 -4 -30 -24 -40 -25 -40 -5 0 8 6 15 13 15 8 0 20 11 27 25 7 14 22 25
32 25 11 0 16 5 13 10 -4 6 -10 8 -15 5 -5 -3 -18 0 -29 7 -11 7 -24 9 -28 5
-4 -5 -1 -12 6 -16 10 -6 10 -10 1 -16 -6 -4 -9 -13 -6 -21 3 -8 -1 -14 -9
-14 -14 0 -19 -12 -16 -32 0 -5 -9 -8 -21 -8 -21 1 -22 1 -5 11 18 10 18 12 1
30 -10 11 -25 17 -35 14 -9 -3 -21 0 -25 6 -4 8 -3 9 4 5 7 -4 12 -2 12 3 0 6
7 11 15 11 8 0 15 -5 15 -11 0 -5 4 -8 9 -4 5 3 12 1 16 -5 11 -18 23 -2 17
25 -2 14 -10 25 -18 25 -7 0 -25 5 -39 12 l-26 12 21 16 c12 9 22 23 24 32 4
28 26 46 49 41 20 -4 21 -3 3 7 -11 7 -34 10 -56 6 -35 -5 -37 -4 -33 18 3 13
0 26 -5 30 -15 9 -2 46 17 46 14 0 14 -2 1 -10 -13 -9 -13 -11 0 -20 20 -13
60 -13 60 0 0 6 -10 24 -22 40 -17 24 -19 32 -8 45 19 22 33 18 26 -8 -4 -16
1 -26 15 -35 15 -10 19 -20 15 -37 -3 -13 -1 -27 5 -30 6 -5 4 -12 -8 -21 -16
-12 -15 -13 15 -14 25 0 32 4 32 19 0 11 -5 23 -11 26 -6 4 -8 13 -5 21 3 8 1
14 -4 14 -6 0 -10 9 -10 20 0 13 7 20 20 20 13 0 20 -7 20 -20 0 -11 7 -20 15
-20 8 0 12 -6 9 -14 -3 -8 -1 -17 5 -21 19 -11 24 24 7 50 -16 24 -16 27 3 54
21 29 19 41 -7 41 -9 0 -12 -6 -8 -15 3 -9 1 -15 -7 -14 -30 4 -45 -2 -50 -21
-3 -13 -10 -18 -21 -14 -18 7 -21 30 -6 39 13 8 13 25 -1 25 -6 0 -16 -6 -23
-12 -8 -7 -23 -20 -35 -28 -11 -8 -21 -19 -21 -25 0 -5 -14 -25 -31 -43 -24
-26 -35 -31 -57 -26 -36 9 -37 11 -19 29 20 19 27 19 27 0 0 -21 5 -19 35 10
14 14 25 34 25 45 0 10 6 21 13 23 10 4 10 6 0 6 -7 1 -13 5 -13 10 0 6 15 7
34 4 19 -3 36 -1 40 6 5 7 -4 11 -23 11 -20 0 -31 5 -31 14 0 20 -25 26 -54
13 -34 -16 -33 -35 2 -49 26 -11 27 -12 4 -16 -24 -4 -62 29 -62 53 0 7 -7 15
-15 19 -10 4 -15 -1 -15 -14 0 -11 6 -20 13 -20 17 0 42 -69 29 -82 -14 -14
-82 1 -82 18 0 8 10 14 23 15 21 0 21 1 2 8 -11 5 -23 7 -27 4 -4 -2 -5 4 -1
13 4 11 8 13 11 6 2 -7 8 -12 13 -12 14 0 11 26 -5 39 -8 7 -18 26 -21 42 -6
26 -25 42 -25 20 0 -5 -3 -17 -7 -27 -5 -12 -3 -15 6 -9 8 4 17 2 22 -6 12
-20 11 -37 -1 -19 -9 13 -13 12 -29 -7 -23 -28 -30 -29 -29 -5 1 9 -2 27 -6
40 -5 16 -3 22 8 22 8 0 18 5 22 12 5 8 -2 9 -25 5 -29 -6 -32 -5 -26 14 5 16
3 20 -6 17 -8 -3 -14 -11 -14 -19 0 -8 -12 -15 -30 -17 -16 -2 -36 -9 -43 -14
-9 -8 -16 -8 -24 0 -7 7 -34 12 -60 12 -41 0 -48 -3 -48 -20 0 -12 -5 -17 -14
-14 -8 3 -17 1 -21 -5 -10 -17 31 -13 49 4 21 22 113 11 142 -16 16 -15 32
-20 53 -17 17 3 29 2 26 0 -2 -3 0 -12 5 -21 13 -25 -2 -41 -44 -48 l-38 -6 3
37 c3 33 0 38 -35 57 -21 11 -42 17 -45 12 -7 -9 -28 -15 -51 -16 -8 0 -20 -4
-27 -9 -7 -6 -26 -6 -45 -2 -18 4 -39 7 -45 5 -7 -1 -13 5 -13 14 0 8 -4 15
-10 15 -5 0 -10 -7 -10 -15 0 -8 -9 -20 -20 -27 -11 -7 -20 -19 -20 -26 0 -7
-4 -10 -10 -7 -15 9 -12 17 19 54 28 32 32 34 57 23 33 -16 64 -7 64 18 0 11
8 23 17 29 14 8 15 12 4 25 -7 9 -20 16 -27 16 -17 0 -17 5 -4 31 15 27 32 24
24 -6 -6 -26 9 -36 20 -12 3 6 3 2 0 -10 -4 -17 -1 -23 11 -23 8 0 18 6 21 13
3 8 26 13 62 14 40 1 51 -1 37 -7 -18 -8 -17 -9 8 -9 40 -1 33 -21 -9 -21 -21
0 -33 4 -29 10 4 6 -7 10 -27 9 -18 0 -27 -3 -19 -6 7 -3 22 -14 33 -25 12
-12 26 -17 36 -12 9 3 27 9 40 11 12 3 22 11 22 18 0 16 25 26 44 19 21 -8 28
25 10 49 l-16 22 5 -22 c3 -13 1 -25 -3 -28 -11 -7 -29 26 -23 43 3 6 0 12 -6
12 -6 0 -11 7 -11 15 0 8 5 15 10 15 6 0 10 -6 10 -12 0 -23 45 -37 71 -22
l24 13 -27 1 c-16 0 -36 8 -47 19 -17 17 -17 20 -2 32 9 8 25 13 36 11 19 -4
19 -3 2 15 -16 16 -20 16 -30 3 -7 -8 -19 -15 -27 -15 -8 0 -14 -8 -14 -17 1
-12 -5 -18 -18 -18 -14 0 -18 -5 -14 -16 3 -8 2 -12 -3 -9 -5 3 -12 1 -16 -5
-4 -6 5 -10 21 -10 22 0 25 -3 20 -22 -3 -13 -6 -29 -6 -35 0 -7 -5 -13 -11
-13 -6 0 -9 9 -6 19 4 17 0 19 -32 14 -34 -4 -35 -4 -16 12 17 14 18 17 5 25
-8 5 -23 10 -32 10 -22 0 -33 19 -19 33 8 8 11 8 11 -1 0 -7 5 -12 12 -12 6 0
3 8 -7 20 -22 24 -31 19 -38 -20 -4 -16 -12 -30 -18 -30 -17 0 -38 32 -38 55
1 16 3 15 13 -8 7 -15 15 -24 19 -21 10 10 7 65 -4 89 -8 17 -9 17 -5 -5 4
-19 0 -28 -17 -35 -12 -6 -24 -21 -27 -34 -5 -22 -7 -22 -19 -7 -12 14 -11 19
4 36 10 11 24 20 32 20 7 0 13 5 13 10 0 6 -10 10 -22 10 -22 1 -22 1 -4 15
10 8 24 16 30 18 8 3 7 8 -2 19 -7 9 -14 30 -15 47 -1 17 -6 31 -11 31 -5 0
-4 6 2 13 7 8 7 17 -2 30 -14 19 -36 23 -36 7 0 -5 7 -10 15 -10 22 0 18 -17
-5 -30 -24 -13 -18 -32 7 -23 11 4 14 2 11 -8 -3 -8 -14 -13 -24 -11 -10 2
-27 4 -36 5 -16 1 -22 10 -20 28 1 4 -8 5 -18 2 -25 -7 -26 13 -4 39 12 13 14
21 6 31 -19 23 23 40 79 32 27 -4 48 -10 48 -13 -4 -23 4 -32 26 -32 14 0 25
5 25 11 0 5 -4 8 -9 5 -9 -6 -44 28 -36 35 5 6 -25 9 -97 11 -45 0 -58 4 -58
16 0 8 -3 13 -6 10 -3 -4 -1 -22 4 -40 7 -26 6 -42 -5 -62 -8 -15 -11 -36 -8
-47 8 -23 62 -54 89 -50 14 2 17 -2 13 -13 -4 -10 -1 -16 9 -16 8 0 12 5 9 10
-3 6 -2 10 4 10 24 0 14 -27 -18 -47 -40 -24 -51 -22 -51 9 0 14 5 18 15 14 8
-3 15 -1 15 3 0 15 -28 20 -38 8 -6 -7 -12 -21 -14 -32 -2 -11 -10 -19 -16
-17 -18 3 -14 -35 4 -42 9 -4 19 -4 22 -1 3 3 0 5 -6 5 -7 0 -12 4 -12 8 0 4
9 8 20 8 16 0 19 -5 14 -21 -15 -45 -23 -61 -38 -74 -13 -11 -16 -11 -16 1 0
8 6 20 12 26 8 8 9 15 3 20 -21 15 -33 49 -29 85 4 28 1 37 -11 37 -8 0 -15
-4 -15 -10 0 -5 -7 -10 -15 -10 -8 0 -15 5 -15 10 0 6 7 10 15 10 8 0 15 5 15
11 0 6 9 8 20 4 11 -4 20 -2 20 4 0 6 -5 11 -11 11 -6 0 -9 7 -5 15 3 9 0 15
-9 15 -8 0 -15 -4 -15 -9 0 -5 -7 -17 -15 -25 -13 -13 -20 -13 -38 -3 -12 6
-27 18 -33 26 -6 7 -23 14 -38 14 -17 0 -23 3 -16 7 9 6 9 9 -1 13 -10 4 -9 6
3 6 9 1 20 -3 23 -9 3 -5 13 -10 21 -10 8 0 14 5 14 10 0 6 -5 10 -11 10 -15
0 -69 39 -69 51 0 5 9 9 20 9 25 0 25 7 0 48 -16 26 -17 32 -5 32 8 0 15 -4
15 -10 0 -6 9 -6 25 0 33 13 73 9 79 -7 7 -17 26 -17 26 1 0 16 -34 29 -72 26
-16 -1 -28 3 -28 9 0 6 10 11 22 11 14 0 19 3 12 10 -16 16 -56 0 -51 -21 6
-22 -3 -25 -21 -7 -10 10 -15 10 -22 -2 -5 -8 -10 -23 -10 -32 0 -10 -7 -18
-15 -18 -20 0 -15 47 6 61 12 7 11 9 -3 9 -9 0 -19 -6 -21 -12 -3 -8 -6 -7 -6
4 -1 9 4 20 9 23 16 10 12 22 -9 28 -16 4 -20 -3 -26 -42 -3 -25 -8 -54 -11
-63 -4 -12 0 -18 11 -18 13 0 15 6 10 30 -5 23 -3 29 7 25 10 -4 13 -17 10
-42 -3 -27 0 -40 14 -50 16 -12 16 -13 -10 -13 -20 0 -26 4 -24 17 2 10 -3 18
-12 18 -9 0 -16 12 -18 30 -2 16 -11 35 -20 43 -15 11 -14 12 6 2 18 -9 22 -8
22 5 0 8 -7 15 -15 15 -8 0 -15 9 -15 19 0 21 -17 37 -28 26 -3 -3 0 -10 8
-15 8 -5 12 -11 10 -14 -3 -2 -15 4 -27 14 -18 14 -20 19 -8 24 17 6 20 51 5
61 -6 4 -10 -6 -10 -22 0 -22 -2 -25 -10 -13 -5 8 -10 11 -11 5 0 -5 -4 1 -8
14 -4 14 -5 39 -3 57 4 30 6 32 19 18 13 -13 14 -19 3 -40 -7 -13 -10 -27 -7
-31 4 -3 7 0 7 8 1 8 10 25 21 39 19 23 22 23 34 7 7 -9 18 -17 24 -17 7 0 9
-5 6 -10 -4 -6 -16 -8 -28 -5 -17 5 -19 4 -7 -4 18 -13 50 -14 50 -2 0 5 10
11 23 15 29 8 6 24 -30 20 -18 -2 -27 3 -30 17 -5 19 -33 27 -33 9 0 -5 -4
-10 -10 -10 -5 0 -10 6 -10 14 0 17 31 29 53 21 8 -4 18 -2 21 3 11 18 -54 23
-72 6 -11 -11 -17 -13 -20 -5 -7 22 -22 -1 -22 -34 0 -46 -10 -71 -22 -53 -5
8 -6 2 -2 -17 4 -23 3 -26 -5 -15 -6 8 -11 10 -11 4 0 -6 -7 -11 -16 -11 -11
0 -14 7 -9 24 5 22 3 23 -40 23 -25 0 -48 0 -52 1 -4 0 -9 -3 -10 -8 -2 -5 19
-9 46 -8 40 1 46 -1 35 -12 -16 -16 -36 -17 -53 0 -11 10 -13 9 -8 -4 4 -12 0
-15 -20 -11 -23 4 -24 8 -17 41 4 20 7 46 7 59 -1 12 3 22 8 22 5 0 9 7 9 15
0 11 -11 15 -37 16 -35 0 -36 1 -14 10 14 5 30 8 38 5 7 -3 15 -1 18 4 4 6
-12 11 -37 11 l-43 2 40 6 40 7 -45 5 c-49 6 -70 2 -70 -13 0 -6 6 -5 15 2 13
10 15 9 15 -9 0 -31 -38 -28 -50 5 -7 16 -14 23 -22 18 -9 -5 -8 -2 1 9 8 11
21 15 32 12 11 -4 19 -2 19 3 0 5 -11 12 -25 14 -17 4 -25 1 -25 -8 0 -8 -7
-14 -15 -14 -8 0 -15 5 -15 10 0 6 5 10 10 10 6 0 10 5 10 11 0 6 -6 9 -14 6
-8 -3 -19 0 -25 7 -7 9 -4 12 12 11 12 0 28 -4 35 -8 7 -5 12 -3 12 4 0 10 3
10 12 1 7 -7 20 -12 29 -12 9 0 24 -12 34 -26 20 -31 32 -26 13 6 -15 25 -72
52 -93 44 -8 -4 -15 -1 -15 5 0 6 5 11 10 11 6 0 10 7 10 16 0 22 23 12 35
-14 5 -12 19 -22 30 -22 11 0 30 -7 43 -15 20 -14 21 -14 16 0 -3 8 -1 15 4
15 18 0 62 -49 56 -63 -3 -8 2 -19 10 -26 12 -10 14 -7 13 21 -1 18 3 33 8 34
40 5 74 18 72 28 -1 6 -15 17 -32 24 -17 8 -25 16 -19 20 13 8 15 42 3 42 -5
0 -6 8 -3 18 5 13 4 14 -4 3 -5 -7 -16 -18 -23 -23 -11 -8 -10 -9 4 -4 12 4
17 0 17 -14 0 -13 -5 -18 -15 -14 -8 4 -15 1 -15 -5 0 -6 7 -11 15 -11 8 0 15
-4 15 -10 0 -5 7 -10 16 -10 8 0 13 -4 10 -9 -10 -16 -99 -5 -140 17 -5 3 -6
0 -2 -6 4 -7 3 -12 -3 -12 -6 0 -8 12 -4 30 4 23 2 30 -11 30 -9 0 -16 -8 -16
-19 0 -28 -15 -33 -34 -12 -18 20 -6 38 17 25 6 -4 5 0 -3 9 -22 23 -70 11
-71 -17 l0 -21 -9 21 c-5 12 -24 27 -44 34 -53 17 -47 39 9 32 30 -3 45 -1 45
7 0 6 7 11 15 11 8 0 15 5 15 10 0 6 -7 10 -15 10 -8 0 -15 -4 -15 -10 0 -13
-37 -13 -45 -1 -3 5 7 11 22 13 28 3 45 28 19 28 -9 0 -16 5 -16 11 0 6 -6 9
-14 6 -8 -3 -22 3 -32 14 -9 10 -21 19 -26 19 -13 0 -9 -28 5 -34 6 -3 -7 -3
-30 0 -39 5 -43 4 -43 -15 0 -12 -6 -21 -15 -21 -8 0 -15 7 -15 16 0 9 -5 14
-12 12 -20 -7 -21 -28 -1 -35 10 -4 25 -16 34 -26 14 -18 16 -18 32 -2 9 9 25
14 35 12 14 -4 14 -6 -5 -12 -28 -9 -29 -20 -5 -34 16 -10 15 -11 -4 -17 -16
-4 -20 -11 -16 -30 5 -29 22 -32 22 -4 0 11 5 20 10 20 6 0 10 -9 10 -21 0
-11 5 -17 10 -14 6 3 10 -1 10 -10 0 -11 -5 -15 -15 -11 -9 3 -15 0 -15 -9 0
-20 -19 -19 -26 0 -4 9 -16 15 -28 14 -36 -3 -56 1 -56 11 0 14 27 13 32 -2 5
-13 28 -2 28 13 0 6 -4 8 -9 5 -14 -9 -21 20 -8 33 8 8 8 11 -2 11 -7 0 -10 4
-7 9 7 11 -71 8 -81 -3 -5 -5 3 -5 15 -1 23 7 23 7 7 -19 -17 -25 -45 -36 -45
-17 0 5 -14 11 -31 15 -26 5 -29 8 -19 20 6 8 24 16 38 18 15 2 25 7 24 12 -6
15 21 25 39 15 31 -16 44 -10 23 11 -10 10 -25 26 -32 35 -13 15 -37 11 -27
-5 3 -4 -11 -10 -30 -12 -23 -3 -32 -1 -25 6 16 16 12 36 -7 36 -14 0 -15 2
-5 9 11 7 12 12 1 29 -12 18 -14 19 -24 5 -8 -11 -19 -14 -31 -9 -14 5 -15 9
-5 15 9 6 5 9 -13 9 -14 0 -23 -4 -21 -9 3 -4 1 -10 -5 -14 -16 -10 -1 -25 18
-18 14 5 14 3 -2 -9 -12 -9 -17 -21 -13 -32 8 -20 -25 -22 -45 -2 -26 25 -58
29 -73 9 -9 -12 -14 -13 -15 -5 0 23 25 40 53 35 16 -3 27 -1 27 6 0 6 -6 11
-12 11 -10 0 -10 2 0 9 11 7 10 10 -3 15 -22 8 -35 8 -34 -1 4 -22 -3 -24 -19
-10 -26 24 -49 3 -56 -48 l-6 -40 14 45 c8 25 14 37 15 27 1 -10 4 -16 9 -14
4 3 7 -9 7 -26 0 -27 4 -32 25 -35 80 -8 88 -12 95 -42 6 -27 35 -44 35 -20 0
5 7 7 15 4 8 -4 15 -1 15 5 0 6 -3 10 -7 10 -18 -3 -33 2 -33 10 0 10 19 9 36
-1 6 -4 26 -3 44 2 19 5 35 8 37 7 1 -2 -35 -23 -82 -46 -61 -30 -90 -51 -100
-72 -19 -36 -25 -37 -25 -4 0 14 6 25 14 25 8 0 13 11 12 28 0 15 3 37 7 48 6
17 3 23 -15 27 -12 4 -27 2 -34 -4 -9 -7 -18 -3 -33 12 -12 13 -21 28 -21 33
0 6 -5 3 -11 -6 -15 -26 -26 -22 -31 11 -2 17 -1 28 4 25 4 -3 8 5 7 18 0 13
-3 17 -6 10 -3 -8 -10 -5 -22 10 -19 23 -41 18 -41 -10 0 -15 2 -15 10 -2 5 8
10 11 10 5 0 -5 -4 -17 -9 -24 -8 -12 -11 -9 -16 12 -9 33 -39 36 -56 6 -9
-17 -8 -23 2 -30 12 -7 12 -9 0 -9 -8 0 -23 -7 -33 -17 -17 -15 -18 -15 -18 4
0 11 9 32 20 45 l20 26 -33 -2 c-17 -1 -40 3 -50 8 -12 8 -20 8 -25 1 -4 -7
-66 -10 -159 -9 -84 0 -150 -3 -147 -8 3 -4 0 -8 -5 -8 -6 0 -11 4 -11 8 0 4
-25 8 -55 9 -30 0 -53 -3 -50 -7 3 -5 14 -6 25 -3 11 3 20 1 20 -5 0 -18 -34
-18 -53 -1 -13 12 -38 17 -90 17 -40 1 -123 4 -184 6 -69 3 -115 1 -119 -5 -3
-6 -10 -6 -17 -1 -12 9 -57 14 -107 12 -14 -1 -34 -2 -45 -2 -11 -1 -51 2 -90
5 -38 3 -124 9 -190 12 -156 7 -240 13 -410 25 -77 6 -167 12 -200 15 -33 2
-60 4 -60 5 0 1 -56 6 -180 14 -44 3 -159 15 -255 26 -218 25 -236 27 -390 45
-69 8 -201 26 -295 40 -93 14 -190 28 -215 31 -25 3 -52 7 -60 9 -27 5 -100
17 -123 20 -32 5 -299 52 -387 68 -41 8 -82 15 -90 15 -24 1 -379 74 -600 123
-289 64 -656 155 -905 224 -111 31 -169 43 -179 38 -5 -4 -6 -2 -3 4 4 6 -18
15 -51 23 -31 6 -66 16 -77 21 -11 5 -96 31 -190 59 -185 55 -552 174 -600
195 -16 7 -61 23 -100 35 -38 12 -83 28 -100 35 -16 7 -75 29 -130 49 -55 19
-115 41 -133 48 -28 11 -34 10 -43 -2 -10 -13 -10 -13 -6 0 4 12 -24 27 -114
64 -65 26 -124 44 -130 40 -8 -4 -9 -3 -5 4 4 7 2 12 -4 12 -6 0 -36 11 -67
25 -33 16 -64 23 -77 20 -17 -5 -18 -4 -6 4 13 10 13 11 0 11 -8 0 -44 14 -78
30 -68 32 -87 37 -76 18 4 -7 3 -8 -5 -4 -6 4 -9 11 -6 16 3 4 -14 15 -37 23
-24 9 -98 41 -166 71 -68 31 -133 56 -144 56 -12 0 -18 3 -15 7 4 3 -5 12 -19
20 -31 16 -37 16 -29 3 8 -13 -11 -13 -37 1 -16 8 -23 8 -30 -2 -7 -11 -8 -9
-4 4 3 10 6 21 6 23 0 3 9 0 21 -6 11 -7 23 -10 25 -7 3 2 -10 10 -28 17 -18
6 -44 17 -58 23 -39 18 -46 19 -30 8z m10241 -3011 c5 0 9 -4 9 -10 0 -5 -7
-10 -15 -10 -11 0 -12 -6 -6 -22 6 -18 17 -24 46 -25 44 -3 68 -19 46 -32 -10
-6 -6 -9 12 -8 18 2 27 8 27 20 0 19 19 24 22 5 0 -7 2 -17 3 -23 2 -5 3 -15
4 -22 0 -6 9 -13 19 -16 14 -3 12 -6 -9 -15 -30 -12 -69 -6 -69 12 0 6 -9 17
-20 24 -17 10 -21 10 -26 -3 -4 -8 -12 -15 -20 -15 -8 0 -14 -9 -14 -21 0 -11
-4 -17 -10 -14 -5 3 -10 1 -10 -4 0 -6 8 -11 18 -11 14 0 15 -2 2 -10 -10 -7
-18 -6 -25 4 -5 7 -16 11 -23 8 -10 -3 -10 -7 -1 -18 18 -22 -5 -16 -32 8 -19
16 -20 20 -5 14 15 -5 17 -2 12 19 -5 18 -2 25 9 25 8 0 14 -5 13 -12 -2 -6 5
-14 14 -16 12 -2 19 5 24 22 3 14 14 26 23 27 12 0 12 2 -4 9 -20 9 -7 15 24
11 7 -2 10 2 6 9 -4 7 -16 9 -27 7 -26 -7 -48 2 -48 19 0 17 -12 18 -28 2 -8
-8 -12 -9 -12 -1 0 6 5 13 11 15 9 3 16 22 18 52 1 4 8 5 17 2 9 -3 20 -6 25
-6z m6 -243 c-2 -7 10 -17 27 -23 27 -10 28 -13 12 -19 -11 -5 -21 -3 -27 6
-5 8 -9 9 -9 3 0 -22 26 -45 43 -38 9 3 17 10 17 14 0 5 9 6 20 3 11 -3 20 -9
20 -14 0 -5 9 -9 20 -9 20 0 20 -1 3 -26 -9 -15 -19 -22 -21 -15 -6 18 -30 13
-37 -9 -7 -23 -76 -41 -83 -21 -2 6 -12 11 -23 11 -20 0 -24 10 -10 26 4 5 11
24 15 43 5 31 4 33 -16 28 -12 -4 -28 -1 -35 5 -10 8 -13 5 -13 -16 0 -22 -4
-26 -30 -26 -16 0 -30 -5 -30 -11 0 -7 15 -10 39 -7 35 3 39 1 37 -17 -5 -42
-17 -55 -52 -55 -27 0 -37 5 -44 23 -7 17 -9 18 -9 5 -1 -10 -5 -18 -11 -18
-13 0 -13 27 0 35 8 5 7 11 0 20 -17 21 -3 35 36 35 22 0 34 5 34 14 0 18 26
28 72 29 20 1 34 5 31 9 -2 5 -2 16 1 24 7 17 29 8 23 -9z"/>
<path d="M40223 15304 c-3 -9 0 -20 7 -24 8 -5 12 -23 11 -42 -6 -103 -7 -101
29 -93 24 5 30 3 30 -10 0 -9 6 -15 13 -12 6 2 17 -3 23 -12 9 -12 11 -5 10
32 0 26 -4 47 -8 47 -5 0 -8 -7 -8 -15 0 -20 -24 -19 -41 1 -15 18 -1 49 22
49 8 0 19 4 26 8 9 5 14 -10 19 -53 4 -34 11 -57 16 -54 6 4 7 19 4 35 -3 18
-1 29 6 29 6 0 9 3 5 6 -10 10 17 33 28 24 15 -13 65 0 65 17 0 11 -7 13 -30
8 -29 -6 -43 8 -17 18 7 4 6 6 -4 6 -9 1 -24 -10 -33 -24 -9 -14 -22 -23 -27
-19 -7 4 -7 10 0 17 15 15 14 27 -4 27 -8 0 -15 -5 -15 -12 0 -6 -10 -3 -22 8
-12 10 -18 13 -14 6 4 -6 1 -18 -7 -26 -20 -20 -45 -2 -53 39 -7 37 -21 46
-31 19z"/>
<path d="M41921 13986 c-37 -13 -33 -20 17 -37 20 -6 14 -7 -22 -3 -27 3 -55
8 -62 11 -8 3 -14 0 -14 -6 0 -6 11 -13 25 -17 32 -8 33 -23 0 -17 -13 3 -27
14 -30 24 -6 19 -45 27 -45 9 0 -5 -7 -10 -15 -10 -8 0 -15 -4 -15 -10 0 -5
16 -10 35 -10 24 0 35 -5 35 -15 0 -18 -17 -20 -22 -3 -3 7 -12 4 -27 -11 -17
-17 -21 -29 -16 -52 4 -18 3 -29 -4 -29 -6 0 -11 5 -11 10 0 6 -9 10 -20 10
-11 0 -20 -4 -20 -10 0 -5 -7 -10 -15 -10 -8 0 -15 5 -15 10 0 6 -4 10 -10 10
-15 0 -12 -30 3 -31 6 -1 20 0 31 1 25 2 62 -38 47 -53 -8 -8 -15 -6 -26 9
-13 16 -16 17 -25 4 -14 -22 -12 -27 11 -33 12 -3 18 -10 14 -16 -3 -6 -2 -11
4 -11 5 0 11 5 13 12 5 15 45 21 53 8 3 -6 -3 -10 -15 -10 -17 0 -20 -4 -15
-20 4 -12 2 -20 -5 -20 -6 0 -8 -4 -5 -10 3 -5 11 -10 16 -10 6 0 7 5 4 10 -3
6 -1 10 4 10 6 0 11 7 11 15 0 8 4 15 9 15 6 0 22 11 37 25 l27 25 -32 -6
c-29 -6 -31 -5 -23 17 10 26 37 47 48 36 4 -3 1 -14 -6 -22 -12 -14 -11 -15
13 -4 34 16 34 21 -3 43 -24 13 -34 15 -45 6 -10 -8 -16 -4 -29 20 -14 30 -14
31 5 28 11 -2 20 -7 20 -13 0 -5 8 -13 17 -16 23 -8 92 1 92 12 0 5 -20 6 -45
2 -31 -4 -45 -2 -45 6 0 6 17 11 43 11 46 0 77 -13 58 -24 -6 -4 -8 -12 -5
-18 5 -7 -2 -9 -22 -4 l-29 8 28 -24 c15 -13 27 -30 27 -38 0 -13 -2 -13 -11
0 -9 12 -10 12 -7 1 3 -8 9 -16 15 -18 13 -5 28 51 18 67 -3 5 1 10 11 10 13
0 14 3 5 13 -13 17 -5 27 22 27 15 0 18 -5 14 -21 -4 -16 -3 -19 5 -11 22 22
0 42 -44 42 -57 0 -118 11 -118 20 0 5 18 6 40 3 33 -5 40 -3 40 11 0 12 10
16 40 16 23 0 40 5 40 11 0 6 -7 9 -15 5 -8 -3 -15 -1 -15 4 0 5 8 11 18 13
16 4 16 5 0 6 -10 0 -18 8 -18 16 0 18 -4 18 -49 1z"/>
</g>
</svg>
