<?xml version="1.0" standalone="no"?>
<!DOCTYPE svg PUBLIC "-//W3C//DTD SVG 20010904//EN"
 "http://www.w3.org/TR/2001/REC-SVG-20010904/DTD/svg10.dtd">
<svg version="1.0" xmlns="http://www.w3.org/2000/svg"
 width="7680.000000pt" height="3916.000000pt" viewBox="0 0 7680.000000 3916.000000"
 preserveAspectRatio="xMidYMid meet">
<metadata>
Created by potrace 1.16, written by Peter Selinger 2001-2019
</metadata>
<g transform="translate(0.000000,3916.000000) scale(0.100000,-0.100000)"
fill="#000000" stroke="none">
<path d="M0 19580 l0 -19580 38400 0 38400 0 0 19580 0 19580 -38400 0 -38400
0 0 -19580z m31150 -2376 c18 -9 20 -13 8 -14 -9 0 -20 5 -24 11 -7 12 -24 -6
-24 -26 0 -5 4 -4 9 4 6 10 13 11 29 2 26 -14 45 -14 37 -1 -8 13 -2 13 29 -3
14 -8 23 -17 19 -20 -3 -4 3 -7 14 -7 18 0 137 -47 228 -91 38 -18 209 -89
250 -103 16 -6 17 -9 5 -17 -11 -7 -6 -8 14 -3 23 5 27 4 21 -6 -6 -10 -4 -12
9 -7 9 4 36 -2 59 -12 47 -21 293 -118 402 -158 39 -14 97 -36 130 -49 33 -13
67 -24 75 -24 9 0 20 -4 25 -9 6 -5 53 -23 105 -40 52 -17 104 -35 115 -40 26
-12 384 -128 540 -176 66 -20 154 -47 195 -60 41 -12 98 -29 127 -36 29 -7 49
-17 46 -22 -3 -6 -1 -7 5 -3 6 3 44 -3 84 -14 279 -77 754 -197 938 -236 36
-8 76 -17 90 -20 14 -3 45 -9 70 -14 25 -4 77 -16 115 -25 101 -24 367 -77
385 -77 8 0 35 -5 60 -10 25 -5 56 -11 70 -13 14 -2 63 -11 110 -20 47 -8 105
-18 130 -21 25 -3 59 -9 75 -14 17 -4 53 -11 80 -14 28 -4 61 -8 75 -11 33 -6
433 -63 485 -69 22 -3 78 -10 125 -15 47 -6 108 -13 135 -16 257 -28 411 -49
417 -59 5 -8 8 -7 8 2 0 9 14 11 58 6 31 -3 82 -7 112 -9 30 -2 57 -5 60 -6 3
-1 7 -1 10 -1 3 0 84 -6 180 -13 96 -8 231 -17 300 -20 69 -4 181 -10 250 -15
69 -4 164 -7 213 -6 48 0 87 -3 87 -7 0 -5 9 -5 20 -2 12 4 27 2 35 -5 7 -6
15 -7 18 -3 4 6 219 9 237 3 3 -1 35 -2 73 -2 37 0 70 -4 73 -9 3 -5 10 -9 15
-9 6 0 8 4 5 9 -8 13 97 9 106 -4 5 -7 14 -6 28 3 16 10 20 10 20 0 0 -10 2
-10 8 0 6 8 26 11 65 8 32 -2 60 0 63 5 3 5 9 7 13 5 18 -11 66 -15 72 -5 4 7
12 5 22 -5 14 -15 17 -15 25 0 7 12 14 14 28 7 10 -5 34 -9 53 -7 18 1 29 -1
24 -5 -14 -9 -33 -47 -33 -67 0 -14 2 -15 17 -3 9 8 22 29 30 47 9 22 20 32
34 32 18 0 20 -4 15 -27 -5 -21 -4 -24 4 -13 9 13 10 13 10 0 0 -13 1 -13 10
0 8 13 10 12 10 -2 0 -16 11 -23 33 -19 4 0 7 -6 7 -14 0 -9 -6 -12 -17 -9
-16 5 -16 4 0 -6 10 -6 25 -9 34 -6 9 4 27 -1 40 -10 15 -9 31 -13 41 -8 13 6
10 8 -13 13 -26 6 -30 11 -30 37 0 17 -5 36 -12 42 -8 9 -13 1 -19 -31 -7 -38
-8 -40 -15 -17 -4 14 -7 34 -7 45 0 16 2 15 8 -5 8 -24 8 -24 9 -3 1 23 41 54
41 33 0 -6 5 -8 11 -4 8 4 9 0 4 -15 -8 -25 19 -30 29 -5 3 8 2 12 -4 9 -6 -3
-10 1 -10 9 0 18 18 20 40 6 13 -8 13 -10 0 -10 -11 0 -11 -3 3 -17 13 -14 20
-15 25 -6 4 7 8 -8 8 -32 0 -25 -3 -45 -7 -45 -11 0 -30 -80 -22 -94 7 -12 12
-12 33 4 19 15 21 20 8 20 -9 0 -20 5 -24 11 -4 8 1 9 16 4 20 -6 21 -5 10 14
-12 23 -5 61 10 61 5 0 7 7 3 16 -4 11 1 22 13 31 19 14 19 14 -1 11 -15 -2
-19 2 -17 17 5 28 9 30 27 11 19 -19 20 -19 65 -6 37 11 58 1 44 -21 -5 -9 -9
-8 -14 6 -6 18 -7 17 -12 -3 -4 -14 -2 -20 4 -16 7 5 9 -2 6 -20 -3 -14 -2
-26 2 -26 4 0 22 -3 39 -6 26 -6 31 -4 30 12 0 11 -3 14 -6 6 -2 -6 -9 -10
-14 -6 -17 10 2 24 26 18 12 -3 26 -1 29 5 4 6 2 11 -3 11 -6 0 -11 5 -11 11
0 6 8 9 17 7 18 -3 27 -64 11 -74 -5 -3 -6 -10 -3 -15 4 -5 1 -9 -5 -9 -6 0
-10 7 -8 16 2 10 -3 19 -9 21 -7 3 -13 -3 -13 -12 0 -9 -4 -13 -10 -10 -5 3
-15 3 -21 0 -14 -9 21 -34 38 -28 12 5 18 -13 14 -44 -1 -8 5 -10 14 -7 10 4
13 13 10 24 -3 10 0 22 6 26 9 5 10 2 6 -9 -4 -10 -2 -17 5 -17 7 0 6 -5 -2
-15 -6 -8 -9 -19 -5 -26 6 -8 10 -7 16 2 7 11 9 10 9 -3 0 -20 -22 -36 -28
-20 -5 15 -32 16 -32 2 0 -5 7 -10 15 -10 9 0 12 -6 9 -17 -4 -11 -2 -14 3 -8
4 6 17 15 28 21 15 9 19 21 18 48 -1 20 2 36 8 36 6 0 7 -4 4 -10 -3 -5 -1
-10 4 -10 14 0 14 6 1 30 -6 11 -16 17 -24 14 -19 -7 -42 24 -28 38 7 7 12 20
12 29 0 9 7 19 15 23 22 8 18 26 -6 26 -11 0 -17 5 -14 10 9 14 21 12 40 -6 8
-9 22 -13 30 -10 8 3 17 1 21 -5 3 -6 17 -14 30 -19 13 -5 24 -15 24 -21 0 -8
-4 -8 -15 1 -12 10 -18 8 -33 -10 -10 -13 -32 -24 -52 -26 -45 -5 -52 -14 -11
-14 18 0 47 7 64 16 62 32 69 35 74 30 11 -10 -9 -26 -33 -26 -14 0 -22 -4
-19 -10 3 -5 15 -10 26 -10 10 0 19 5 19 10 0 6 8 10 17 10 14 0 13 -4 -6 -21
-21 -20 -48 -26 -80 -18 -7 2 -16 -2 -18 -8 -6 -17 32 -21 84 -9 20 5 24 4 13
-3 -13 -9 -13 -11 0 -15 8 -2 26 -4 39 -3 13 1 26 -4 29 -12 3 -8 0 -11 -7 -7
-21 14 -33 -5 -15 -25 19 -21 34 -16 34 12 0 10 7 19 15 19 18 0 20 -31 3 -48
-10 -10 -5 -11 22 -7 27 4 30 3 15 -4 -11 -5 -36 -7 -55 -4 l-35 6 33 -29 c17
-16 32 -34 32 -41 0 -7 6 -13 13 -14 6 0 3 -4 -8 -9 -17 -7 -16 -9 9 -9 37 -1
28 -11 -14 -16 -42 -6 -52 -15 -15 -15 15 0 33 -7 40 -16 19 -27 29 40 10 75
-8 16 -12 31 -8 34 10 11 23 -3 23 -26 0 -16 3 -18 11 -10 7 7 9 19 6 27 -10
25 -7 31 10 28 8 -2 12 1 9 6 -3 5 3 12 14 15 23 6 27 27 5 27 -8 0 -15 5 -15
11 0 6 7 9 15 5 10 -4 15 1 15 15 0 16 -4 19 -16 15 -14 -5 -15 -4 -4 9 7 8
20 15 29 15 14 0 14 -2 1 -10 -12 -8 -12 -10 5 -11 11 0 14 -3 7 -6 -6 -2 -9
-9 -6 -15 4 -6 0 -14 -7 -19 -10 -6 -6 -11 16 -21 35 -16 44 -38 15 -38 -24 0
-42 -37 -29 -62 10 -19 1 -51 -11 -43 -5 3 -7 23 -5 45 2 22 0 42 -5 45 -13 8
-20 -22 -13 -55 3 -17 0 -36 -6 -44 -9 -11 -9 -19 1 -35 15 -24 38 -28 38 -6
0 8 3 15 8 15 4 0 8 -21 9 -46 2 -39 0 -44 -13 -33 -12 10 -13 9 -8 -6 5 -11
4 -16 -3 -12 -6 4 -8 -4 -5 -21 3 -15 7 -21 10 -14 2 6 8 10 12 7 14 -8 23 61
16 114 -6 47 -5 49 19 49 14 0 25 -4 25 -9 0 -5 -4 -9 -9 -9 -15 0 -21 -29
-11 -52 8 -22 9 -22 9 4 1 25 21 52 21 28 0 -7 6 -8 19 0 26 13 81 13 81 -1 0
-7 -10 -9 -24 -5 -14 3 -32 3 -40 0 -17 -7 -22 -34 -6 -34 14 0 12 -21 -3 -34
-7 -6 -10 -10 -8 -9 2 2 10 -5 18 -15 13 -16 14 -15 10 6 -6 24 3 28 21 10 9
-9 15 -9 24 0 9 9 9 12 -3 12 -13 0 -49 33 -49 45 0 3 7 5 15 5 8 0 15 -9 15
-20 0 -16 6 -19 29 -16 39 4 65 -12 34 -20 -13 -4 -23 -11 -23 -16 0 -6 -11
-8 -24 -6 -17 4 -23 1 -19 -9 3 -8 -2 -13 -16 -13 -14 0 -19 -5 -15 -15 4 -8
-1 -17 -9 -21 -13 -5 -12 -9 5 -26 11 -11 23 -16 26 -12 4 3 1 9 -5 11 -16 6
-17 23 -3 23 6 0 15 -10 21 -22 8 -21 9 -20 4 5 -5 24 -3 28 12 25 10 -2 19
-12 20 -23 3 -20 3 -20 -6 0 -7 15 -9 6 -8 -32 2 -66 12 -68 21 -4 6 45 8 48
31 43 28 -5 33 -20 10 -28 -8 -4 -15 -10 -15 -16 0 -5 14 1 31 13 26 18 33 19
40 8 5 -8 4 -15 -1 -17 -23 -8 21 -32 47 -27 l28 6 -30 -14 c-16 -8 -31 -10
-33 -5 -2 4 -11 8 -20 8 -15 -1 -15 -2 1 -14 9 -7 17 -25 17 -39 0 -16 -7 -27
-17 -30 -13 -3 -11 -5 6 -6 16 -1 21 -5 17 -16 -4 -10 3 -20 19 -27 14 -6 25
-15 25 -20 0 -11 -28 -10 -35 2 -3 6 -14 10 -23 10 -15 0 -15 -2 -2 -11 11 -7
4 -8 -25 -3 -32 5 -38 4 -28 -6 6 -7 9 -19 6 -26 -3 -8 0 -14 6 -14 6 0 11 9
11 21 0 11 4 18 10 14 5 -3 7 -12 3 -20 -4 -11 3 -15 28 -15 32 1 33 1 15 15
-19 15 -19 15 2 15 12 0 22 -4 22 -10 0 -5 13 -16 29 -25 27 -13 31 -13 45 1
9 8 16 20 16 25 0 5 7 9 15 9 9 0 12 -6 9 -15 -4 -8 -1 -15 5 -15 6 0 11 -5
11 -11 0 -6 -7 -8 -15 -5 -16 6 -55 -13 -55 -26 0 -5 7 -8 15 -8 8 0 15 5 15
10 0 6 6 10 14 10 9 0 13 -12 12 -37 -1 -37 10 -71 28 -84 5 -4 5 -12 1 -19
-5 -8 -11 -5 -22 9 -16 24 -38 27 -46 8 -4 -10 2 -13 19 -9 31 6 34 -23 3 -31
-13 -4 -18 -10 -14 -17 6 -9 9 -9 15 0 4 7 13 9 20 5 6 -4 20 1 31 11 10 9 22
14 26 10 4 -4 1 -12 -7 -17 -11 -7 -7 -9 15 -7 18 2 30 9 31 18 0 8 -1 10 -3
3 -3 -8 -10 -6 -23 7 -24 24 -16 63 11 55 14 -5 19 -2 18 12 0 10 -3 13 -6 5
-5 -13 -23 -7 -23 8 0 10 57 44 88 52 31 8 28 -6 -5 -22 -27 -13 -27 -14 -5
-18 23 -4 31 -22 9 -22 -14 0 -47 -35 -47 -49 0 -5 7 -11 15 -15 11 -4 15 1
15 19 0 14 4 25 9 25 10 0 24 -47 17 -59 -3 -4 7 -8 22 -7 19 1 28 7 30 21 6
36 12 46 22 40 7 -4 8 -11 1 -18 -5 -7 -7 -27 -5 -46 4 -37 14 -56 14 -28 0 9
8 17 18 18 14 0 14 2 -3 9 -13 6 -15 9 -5 9 8 0 22 -4 30 -9 13 -8 12 -11 -5
-25 -19 -16 -18 -16 18 -11 33 4 37 3 27 -9 -7 -8 -27 -15 -44 -16 -17 -1 -42
-5 -56 -9 -22 -7 -21 -8 13 -9 25 -1 36 -5 31 -12 -4 -7 5 -10 27 -8 50 4 59
13 19 20 l-35 6 33 2 c21 1 32 6 32 15 0 24 20 29 35 10 16 -21 16 -21 19 19
2 27 -18 39 -26 15 -4 -10 -8 -9 -19 2 -23 23 -31 50 -15 50 8 0 16 9 19 21 3
12 10 18 17 14 6 -4 18 1 25 11 13 18 14 18 32 0 17 -18 17 -18 -5 -13 -20 5
-22 2 -17 -16 5 -17 4 -19 -4 -7 -8 12 -13 12 -23 2 -9 -9 -9 -12 0 -12 7 0
12 -7 12 -15 0 -10 11 -15 33 -16 32 0 32 0 7 -12 -35 -15 -34 -15 -21 -30 14
-18 3 -50 -15 -43 -20 8 -44 -4 -44 -20 0 -8 -9 -14 -19 -14 -11 0 -23 -4 -26
-10 -10 -17 -44 -11 -57 10 -9 14 -24 20 -51 20 -35 0 -38 2 -32 21 6 19 5 20
-8 8 -23 -22 -4 -50 31 -43 19 4 34 -1 51 -16 21 -17 32 -20 70 -14 53 8 63
12 56 24 -3 4 2 11 11 14 12 5 14 1 9 -14 -6 -18 -3 -20 19 -14 16 4 26 2 26
-5 0 -6 -6 -11 -14 -11 -11 0 -13 -9 -9 -37 7 -39 27 -68 41 -59 4 2 23 1 42
-4 24 -5 28 -8 13 -9 -37 -2 -27 -29 13 -37 44 -8 64 7 46 36 -6 11 -12 27
-12 35 0 8 -7 15 -15 15 -8 0 -15 9 -15 20 0 28 19 25 30 -6 15 -37 37 -56 62
-51 22 3 22 4 -4 15 -32 13 -36 30 -10 39 9 4 20 10 23 15 8 13 39 -2 39 -18
0 -8 10 -14 23 -14 38 0 67 -12 67 -26 0 -8 -4 -14 -10 -14 -16 0 -12 -30 5
-36 8 -4 15 -15 15 -25 0 -10 4 -19 10 -19 5 0 7 -6 4 -14 -3 -8 -1 -17 5 -21
13 -8 15 -45 2 -45 -16 0 -40 47 -35 67 3 11 -2 25 -10 32 -9 8 -16 24 -16 38
0 20 -4 23 -22 18 -20 -5 -21 -4 -5 5 9 6 22 8 29 4 7 -4 8 -3 4 4 -4 7 -24
12 -44 12 -35 0 -38 -2 -40 -32 -2 -18 -13 -41 -28 -55 -29 -27 -34 -28 -34
-8 0 19 -7 19 -27 0 -18 -19 -17 -21 22 -29 38 -8 63 13 81 67 9 24 16 21 36
-12 15 -28 15 -30 0 -35 -9 -3 -5 -4 10 -2 19 2 25 -1 21 -11 -6 -15 -41 -17
-63 -3 -13 9 -13 11 0 20 13 8 13 10 -1 10 -23 0 -32 -40 -14 -60 12 -13 12
-19 2 -29 -10 -10 -5 -11 23 -6 19 3 46 1 60 -5 24 -10 24 -10 1 -6 -19 4 -26
-2 -40 -35 -9 -21 -24 -42 -34 -45 -17 -5 -16 -8 8 -20 15 -8 34 -14 41 -14 9
0 14 -11 14 -31 0 -26 -2 -29 -14 -20 -8 7 -17 8 -20 3 -3 -6 0 -15 7 -20 17
-15 60 -3 53 14 -3 7 0 16 6 20 7 4 6 9 -3 15 -7 4 -10 11 -6 16 4 4 17 2 28
-5 11 -7 24 -10 29 -7 5 3 11 1 15 -5 3 -5 -3 -10 -14 -10 -12 0 -21 -4 -21
-9 0 -4 -11 -20 -25 -34 -15 -14 -22 -28 -16 -31 5 -4 12 -2 16 3 3 6 12 8 21
4 9 -3 14 0 12 7 -2 7 3 15 10 17 8 3 10 -1 6 -11 -3 -9 -1 -16 6 -16 6 0 9
-4 5 -9 -9 -15 15 -25 28 -12 9 9 8 14 -3 21 -13 8 -13 10 2 10 9 0 19 6 21
13 4 9 8 8 17 -3 10 -13 11 -13 6 3 -4 12 0 17 14 17 11 0 20 -6 20 -14 0 -8
6 -17 13 -19 6 -3 1 -6 -12 -6 -13 -1 -34 -12 -46 -25 -12 -13 -33 -26 -46
-28 -33 -4 -39 -43 -8 -51 22 -6 22 -7 6 -25 -9 -10 -20 -41 -23 -67 -6 -56
-10 -65 -27 -65 -7 0 -6 4 3 10 13 8 12 10 -4 10 -10 0 -25 -8 -32 -17 -12
-17 -13 -17 -19 0 -8 19 -27 24 -23 6 2 -6 -3 -14 -9 -16 -7 -3 -13 2 -13 10
0 8 7 18 16 21 10 4 13 13 9 26 -7 22 2 25 25 10 10 -6 11 -10 3 -10 -7 0 -13
-7 -13 -15 0 -17 11 -20 26 -6 5 5 18 11 29 14 19 5 19 5 -3 12 -18 6 -20 10
-10 22 10 12 7 14 -18 11 -23 -2 -28 1 -26 14 4 22 -33 64 -43 49 -12 -21 -25
-11 -25 19 0 23 4 30 20 30 31 0 24 17 -8 18 -33 1 -61 -33 -43 -51 6 -6 11
-21 11 -32 0 -12 11 -31 25 -43 25 -22 35 -57 14 -50 -6 2 -11 8 -12 13 -2 20
-22 32 -52 29 -17 -1 -44 4 -60 11 l-30 13 35 2 c19 1 41 2 48 1 9 -2 12 6 10
21 -2 14 -9 22 -18 19 -8 -1 -40 -4 -70 -5 -30 0 -57 -5 -58 -11 -2 -5 -9 -16
-15 -23 -8 -10 -7 -16 4 -23 11 -8 10 -9 -6 -7 -28 4 -31 37 -6 54 12 9 21 23
21 33 0 24 -29 36 -36 16 -4 -10 -14 -13 -28 -9 -19 4 -23 -1 -34 -40 -9 -36
-16 -46 -33 -46 -15 0 -19 -5 -15 -15 3 -9 0 -15 -9 -15 -8 0 -15 7 -15 15 0
8 5 15 10 15 6 0 10 10 11 23 0 21 1 21 9 2 10 -22 13 -5 4 19 -5 13 -8 13
-20 1 -8 -7 -14 -21 -14 -29 0 -9 -4 -16 -10 -16 -5 0 -10 7 -10 15 0 8 -5 15
-10 15 -7 0 -7 -6 0 -19 14 -27 13 -41 -5 -41 -9 0 -12 6 -9 15 4 10 0 15 -11
15 -9 0 -13 5 -10 10 3 6 -1 10 -10 10 -8 0 -18 7 -21 15 -9 22 -34 18 -34 -5
0 -16 -7 -20 -34 -20 -19 0 -42 -3 -52 -7 -12 -4 -15 -3 -10 5 4 7 1 12 -9 12
-14 0 -13 -4 5 -30 11 -16 25 -32 30 -35 22 -14 9 -35 -20 -35 -16 0 -30 -5
-30 -11 0 -5 -5 -7 -10 -4 -6 3 -8 19 -5 36 4 21 1 29 -10 29 -8 0 -15 -5 -15
-11 0 -5 -5 -7 -10 -4 -6 4 -17 1 -25 -5 -8 -7 -22 -10 -30 -6 -8 3 -15 0 -15
-6 0 -6 -3 -8 -6 -5 -14 13 20 37 52 37 30 0 34 3 40 35 3 19 10 35 15 35 5 0
9 7 9 15 0 8 2 15 4 15 2 0 11 3 20 6 12 4 16 0 17 -17 l1 -24 7 25 c6 19 3
27 -11 34 -14 7 -22 6 -29 -5 -8 -12 -12 -11 -24 6 -8 11 -19 26 -25 33 -8 8
-8 12 0 12 28 0 0 25 -29 26 -24 1 -29 -1 -21 -11 8 -9 5 -14 -10 -18 -13 -3
-23 0 -27 9 -3 8 -9 14 -14 14 -16 0 -10 -19 12 -41 17 -17 29 -20 61 -15 24
4 37 3 34 -3 -4 -5 -2 -12 4 -16 18 -11 10 -27 -11 -22 -12 3 -32 2 -45 -3
-19 -8 -24 -6 -24 7 0 14 -2 14 -15 -3 -13 -17 -14 -17 -15 -1 0 9 -4 17 -10
17 -5 0 -10 16 -10 35 0 19 -5 35 -11 35 -6 0 -8 -9 -4 -20 5 -14 2 -20 -9
-20 -18 0 -58 20 -68 35 -4 5 -11 6 -15 1 -9 -9 17 -30 69 -54 43 -19 47 -27
18 -35 -13 -3 -20 0 -20 9 0 8 -4 14 -10 14 -5 0 -10 -2 -10 -4 0 -2 -3 -11
-6 -20 -4 -11 -1 -16 11 -16 9 0 19 -9 22 -19 3 -11 15 -22 27 -24 11 -2 6 -3
-11 -1 -32 3 -46 -10 -20 -19 6 -2 8 -8 4 -13 -4 -5 -12 -2 -18 6 -8 13 -10
13 -18 0 -6 -8 -13 -11 -17 -7 -4 3 -2 12 3 19 6 8 7 22 2 33 -6 17 -8 17 -8
3 -1 -25 -21 -22 -21 3 0 11 -4 17 -10 14 -6 -4 -8 -15 -5 -26 5 -14 1 -19
-12 -19 -19 -1 -53 -22 -53 -35 0 -4 7 -5 15 -2 8 4 17 2 20 -3 9 -15 -11 -20
-29 -7 -14 10 -15 18 -7 40 6 16 11 41 11 57 l0 29 -37 -13 c-23 -8 -43 -23
-51 -39 -7 -15 -18 -27 -25 -27 -8 0 -9 3 -1 8 13 9 26 82 14 82 -14 0 -20 30
-11 49 11 19 -24 85 -40 75 -14 -8 -10 -24 6 -24 15 0 16 -4 17 -75 1 -70 -2
-86 -12 -80 -6 3 -8 16 -4 29 3 14 -1 27 -11 36 -10 9 -14 22 -10 39 3 15 0
34 -8 45 -22 31 -43 4 -38 -50 4 -55 17 -58 16 -4 0 22 3 40 7 40 5 0 8 -18 8
-40 0 -22 5 -40 10 -40 6 0 10 -4 10 -9 0 -5 -8 -7 -19 -4 -10 3 -22 0 -25 -6
-4 -6 -16 -11 -26 -11 -10 0 -20 -6 -23 -12 -2 -7 -8 -10 -12 -6 -8 8 18 38
33 38 5 0 8 10 6 23 -1 12 -3 33 -3 46 -1 13 -4 21 -8 17 -4 -4 -6 -22 -5 -41
3 -39 -13 -47 -24 -12 -7 21 -7 21 -14 2 -7 -18 -8 -19 -15 -3 -4 10 -12 15
-17 11 -6 -3 -35 -7 -64 -7 -42 -1 -51 1 -42 11 6 7 14 11 18 8 5 -3 10 7 12
22 2 17 13 33 30 42 31 18 41 12 41 -24 0 -14 3 -28 8 -31 5 -3 9 1 9 10 0 8
6 17 13 19 7 3 4 6 -6 6 -10 1 -15 6 -12 11 9 14 55 13 55 -2 0 -6 3 -9 6 -5
3 3 3 15 -1 26 -5 17 -9 19 -26 8 -15 -9 -23 -9 -39 1 -11 6 -31 12 -45 12
-14 0 -25 5 -25 10 0 6 -7 10 -15 10 -8 0 -13 6 -11 13 1 6 1 9 -1 5 -3 -5
-14 -8 -26 -9 -18 0 -17 -3 11 -16 32 -17 41 -36 22 -48 -5 -3 -10 2 -11 12
-1 12 -3 11 -8 -6 -4 -17 -17 -28 -39 -33 -18 -5 -32 -15 -32 -23 0 -20 7 -19
37 5 31 25 46 26 41 3 -3 -17 -51 -34 -92 -34 -11 0 -25 -7 -31 -15 -6 -9 -27
-16 -47 -17 -32 -1 -35 -3 -24 -19 13 -22 26 -23 26 -3 0 8 4 15 9 15 5 0 8
-8 7 -17 -1 -12 5 -17 17 -15 9 2 17 -3 17 -11 0 -7 12 -18 28 -24 25 -10 25
-11 5 -12 -25 -1 -32 -21 -8 -21 8 0 15 -4 15 -10 0 -5 -11 -10 -25 -10 -18 0
-25 5 -25 19 0 27 -11 52 -20 46 -5 -3 -6 -14 -3 -24 3 -10 -1 -22 -7 -26 -8
-5 -10 -2 -6 11 3 11 -3 29 -14 42 -21 26 -30 28 -30 7 0 -8 -6 -15 -12 -16
-10 0 -10 -2 0 -6 6 -2 10 -9 7 -14 -4 -5 -12 -3 -19 4 -8 7 -10 14 -4 18 13
8 -1 59 -17 59 -7 0 -20 10 -28 23 l-16 22 -13 -32 c-7 -18 -18 -33 -25 -33
-7 0 -13 -6 -13 -14 0 -8 -4 -18 -10 -21 -6 -4 -9 3 -7 16 1 12 -4 24 -10 26
-8 3 -13 -4 -13 -16 0 -18 -4 -20 -27 -15 -25 7 -27 6 -14 -9 7 -10 29 -18 50
-18 21 -1 28 -3 16 -6 -11 -3 -25 -10 -32 -15 -12 -10 -36 -2 -30 10 2 4 -11
20 -30 36 -18 15 -31 21 -27 13 3 -8 1 -18 -5 -22 -6 -3 -11 -18 -12 -33 0
-15 -5 -36 -10 -47 -6 -14 -8 -3 -7 40 2 33 -1 66 -5 73 -13 20 20 26 48 8 16
-11 26 -12 31 -5 3 6 15 8 25 6 14 -4 19 -1 17 11 -2 9 7 18 22 23 21 6 22 7
5 9 -36 4 -70 -2 -84 -13 -11 -9 -15 -9 -19 2 -2 7 -12 21 -21 30 -10 10 -15
23 -13 29 2 7 -3 12 -12 12 -19 0 -20 -4 -4 -29 9 -15 8 -22 -5 -35 -20 -20
-31 -21 -23 -1 9 24 -5 75 -21 75 -12 0 -12 -3 1 -21 9 -14 13 -33 9 -50 -3
-18 -1 -29 6 -29 6 0 3 -9 -6 -20 -21 -24 -35 -26 -27 -5 4 10 0 15 -15 15
-12 0 -21 6 -21 15 0 8 -4 15 -10 15 -5 0 -10 16 -10 35 0 28 5 38 23 45 15 6
17 9 6 9 -26 1 -43 -27 -45 -72 -2 -62 -7 -59 -13 8 -5 53 -4 61 14 72 19 12
19 12 -7 13 -14 0 -28 6 -31 13 -7 20 -20 -1 -19 -32 1 -41 -26 -30 -30 12 -2
24 -8 32 -22 32 -25 0 -31 19 -11 35 14 12 18 11 25 0 5 -8 12 -11 17 -7 4 5
1 12 -7 17 -8 5 -11 12 -7 16 3 4 13 2 20 -4 8 -7 17 -9 20 -5 4 3 7 2 7 -3 0
-6 -5 -15 -12 -22 -9 -9 -7 -12 10 -12 17 0 21 5 20 24 -1 14 -10 27 -20 29
-15 4 -17 9 -8 32 6 15 9 30 6 32 -2 3 -7 -6 -12 -19 -8 -25 -32 -47 -51 -48
-20 0 -15 20 5 21 13 0 14 2 2 6 -8 3 -19 12 -23 20 -5 7 -13 11 -19 7 -7 -4
-6 -9 3 -14 14 -9 20 -49 10 -65 -3 -5 -6 -29 -6 -51 0 -35 1 -39 12 -25 10
14 13 13 21 -9 7 -19 6 -26 -5 -28 -8 -2 -12 -10 -9 -18 3 -8 -1 -14 -9 -14
-8 0 -15 -9 -15 -19 0 -18 -27 -37 -38 -26 -3 3 0 5 6 5 7 0 12 9 12 20 0 11
-4 20 -9 20 -5 0 -13 10 -16 21 -4 12 -10 17 -14 12 -9 -14 -91 -26 -91 -13 0
5 9 10 20 10 18 0 19 3 9 21 l-11 21 -16 -24 c-9 -12 -16 -26 -14 -30 1 -5 -4
-8 -11 -8 -8 0 -13 10 -13 23 1 13 -5 22 -14 22 -8 0 -14 -5 -13 -10 1 -6 -24
-10 -57 -11 -33 -1 -57 3 -54 8 3 5 13 8 22 7 51 -5 72 1 72 21 0 12 -7 20
-16 20 -14 0 -14 -3 -4 -15 11 -13 5 -15 -49 -13 -33 2 -61 6 -61 11 0 4 -4 7
-10 7 -5 0 -10 -7 -10 -15 0 -9 -9 -15 -25 -15 -14 0 -25 5 -25 10 0 6 6 10
13 10 9 0 13 11 12 30 -1 17 2 30 7 30 4 0 8 -7 8 -16 0 -8 5 -12 10 -9 6 4 7
12 3 18 -4 6 -6 25 -6 42 1 16 -1 22 -4 13 -5 -21 -19 -23 -27 -5 -5 10 -7 10
-12 0 -3 -7 -12 -13 -20 -13 -19 0 -18 -19 1 -26 22 -9 18 -24 -7 -24 -21 0
-21 0 -2 -14 18 -14 18 -15 2 -21 -10 -4 -18 -15 -18 -25 0 -13 7 -16 28 -14
15 2 19 1 10 -2 -21 -6 -24 -30 -5 -37 6 -2 8 -8 4 -13 -4 -5 -12 -2 -18 6 -8
13 -10 13 -20 0 -8 -12 -9 -10 -4 8 5 18 2 22 -15 22 -16 0 -20 -5 -16 -15 4
-11 -2 -15 -25 -15 -27 0 -31 3 -27 23 4 21 1 23 -31 23 -20 -1 -37 4 -38 9
-3 11 69 14 77 3 3 -3 17 -9 31 -13 24 -6 27 -3 31 24 3 19 -1 36 -8 42 -10 8
-11 16 -3 30 13 26 2 44 -18 27 -12 -10 -18 -9 -29 7 -19 25 -18 28 14 47 20
13 23 18 9 18 -10 0 -28 -11 -41 -25 -27 -29 -36 -31 -36 -10 0 8 5 15 12 15
9 0 9 3 0 12 -8 8 -15 8 -25 0 -8 -7 -18 -9 -23 -5 -5 4 -4 1 3 -6 7 -8 11
-26 9 -40 -2 -14 -1 -18 1 -8 6 23 23 22 23 -3 0 -11 5 -20 10 -20 6 0 10 9
10 20 0 11 5 20 10 20 6 0 10 -9 10 -20 0 -10 8 -24 18 -29 9 -6 13 -11 8 -11
-5 0 -3 -7 4 -15 17 -20 4 -35 -31 -35 -31 0 -40 17 -14 26 16 7 21 34 5 34
-5 0 -19 -13 -31 -29 -12 -16 -27 -27 -34 -25 -6 3 -18 -2 -25 -11 -14 -17
-36 -20 -45 -5 -7 11 41 35 63 31 6 -1 12 7 12 17 0 15 -6 18 -30 14 -16 -2
-30 -8 -30 -13 0 -5 -9 -9 -20 -9 -11 0 -20 -6 -20 -14 0 -7 -7 -19 -15 -26
-12 -10 -15 -10 -15 4 0 9 -4 16 -10 16 -25 0 -6 18 26 24 19 4 38 14 41 22 3
9 12 12 24 9 22 -7 24 1 7 38 -15 31 -28 35 -28 10 0 -16 -2 -16 -10 -3 -8 11
-9 5 -7 -22 4 -40 -1 -46 -21 -26 -9 9 -13 7 -18 -5 -3 -9 -12 -17 -20 -17 -8
0 -14 -9 -14 -20 0 -11 -7 -20 -15 -20 -25 0 -17 40 10 50 14 5 25 14 25 20 0
5 7 10 16 10 22 0 12 22 -15 32 -18 6 -22 5 -18 -6 6 -16 -16 -44 -51 -64 -19
-10 -25 -9 -42 8 -21 21 -26 40 -11 40 5 0 11 -9 14 -20 5 -20 37 -29 37 -10
0 6 -7 10 -16 10 -9 0 -14 8 -13 18 3 32 -1 52 -11 52 -5 0 -7 -7 -4 -15 4 -9
0 -15 -10 -15 -9 0 -16 -4 -16 -10 0 -20 -28 -10 -34 12 -5 22 -6 22 -20 3 -9
-11 -16 -26 -16 -32 0 -7 -5 -13 -10 -13 -6 0 -10 -6 -9 -12 4 -30 -2 -48 -15
-48 -9 0 -12 10 -10 30 3 25 0 30 -14 28 -18 -3 -19 4 -6 90 4 26 2 42 -4 42
-6 0 -12 -10 -14 -22 -2 -18 -8 -22 -27 -20 -15 2 -21 0 -17 -7 4 -6 14 -11
22 -11 16 0 19 -16 3 -25 -6 -4 -7 -19 -4 -37 6 -27 6 -29 -13 -17 -11 7 -18
18 -15 25 2 6 -6 14 -19 18 -13 3 -36 17 -53 31 -24 22 -27 28 -15 35 13 9 13
10 0 10 -8 0 -25 3 -37 6 -14 4 -23 2 -23 -5 0 -6 6 -11 14 -11 21 0 15 -48
-6 -54 -10 -2 -18 0 -18 6 0 5 -7 16 -15 24 -8 9 -15 22 -15 31 0 13 3 13 15
3 12 -10 15 -10 15 4 0 9 5 16 11 16 6 0 9 6 6 13 -5 16 -48 9 -63 -11 -6 -8
-16 -12 -21 -9 -6 4 -14 -5 -17 -19 -8 -30 -26 -27 -43 7 -11 21 -18 24 -65
22 -45 -2 -50 -1 -30 9 23 12 28 23 13 32 -8 5 -41 -34 -41 -48 0 -3 20 -8 45
-12 25 -3 45 -10 45 -15 0 -8 -43 -4 -77 7 -7 2 -13 -4 -13 -12 0 -11 6 -13
19 -9 11 3 22 1 26 -5 4 -6 -4 -10 -19 -10 -14 0 -29 -1 -33 -2 -11 -4 -3 85
8 98 11 14 1 24 -23 24 -17 0 -18 -6 -13 -67 5 -53 4 -64 -5 -50 -7 10 -9 24
-7 31 9 24 -11 41 -44 38 -21 -3 -29 0 -25 7 4 6 16 11 27 11 27 0 19 24 -9
28 -16 2 -25 -4 -32 -22 -5 -14 -14 -26 -19 -26 -6 0 -8 7 -5 15 5 11 2 13
-10 9 -9 -3 -16 -12 -16 -19 0 -7 -13 -15 -29 -17 -21 -3 -28 -1 -24 9 3 7 11
13 19 13 8 0 14 5 14 10 0 6 -4 10 -10 10 -5 0 -9 4 -7 9 3 11 -45 91 -55 91
-20 0 -58 -21 -53 -30 3 -5 -1 -10 -9 -10 -8 0 -18 -5 -22 -11 -4 -8 1 -9 16
-4 16 5 21 4 18 -6 -7 -21 -47 -23 -54 -4 -6 13 -9 14 -16 3 -7 -10 -10 -10
-19 5 -5 9 -17 17 -25 17 -8 0 -12 5 -9 10 3 6 17 7 31 4 15 -4 24 -2 24 6 0
7 7 10 15 6 8 -3 15 -1 15 4 0 5 -24 6 -52 4 -29 -3 -60 -1 -68 5 -23 15 -6
23 25 11 20 -7 31 -8 39 0 7 7 5 10 -8 10 -9 0 -14 5 -11 10 3 6 15 10 26 10
10 0 19 5 19 11 0 7 -11 9 -30 6 -17 -4 -30 -2 -30 3 0 6 5 10 10 10 6 0 10 4
10 10 0 5 -11 9 -24 8 -18 -2 -22 -7 -18 -23 3 -11 10 -24 16 -28 6 -5 -5 -6
-24 -3 -23 4 -30 3 -21 -3 12 -8 8 -11 -15 -17 -16 -4 -31 -10 -34 -15 -9 -13
-80 -22 -80 -10 0 6 5 11 12 11 9 0 9 3 0 12 -9 9 -18 9 -37 0 -31 -14 -35
-15 -35 -3 0 5 13 14 29 19 28 10 30 14 25 49 -4 29 -3 34 5 23 6 -8 11 -10
11 -5 0 6 -10 19 -21 29 -13 11 -19 13 -16 4 2 -7 0 -22 -6 -32 -9 -18 -10
-18 -22 -3 -12 17 -45 14 -45 -4 0 -5 -7 -9 -16 -9 -11 0 -14 5 -10 16 5 13 1
15 -19 10 -39 -10 -69 3 -84 35 -7 17 -10 33 -6 37 4 4 10 1 12 -5 3 -7 10
-13 18 -13 9 0 9 8 -4 35 -20 44 -27 44 -35 0 -4 -19 -12 -35 -18 -35 -6 0 -8
10 -4 25 4 15 2 25 -4 25 -6 0 -13 -13 -16 -30 -8 -38 -27 -27 -22 12 6 35 -5
44 -23 21 -11 -13 -11 -17 -1 -20 6 -3 12 -16 12 -30 0 -21 -2 -24 -15 -13 -8
7 -15 19 -15 26 0 8 -4 14 -9 14 -12 0 -22 -45 -15 -64 4 -10 1 -16 -9 -16
-10 0 -13 -8 -9 -26 4 -22 2 -25 -14 -21 -53 15 -74 17 -74 7 0 -5 -5 -10 -12
-10 -9 0 -9 3 -1 11 6 6 9 18 6 26 -4 9 3 16 17 20 18 5 21 11 18 39 -2 19 1
36 7 38 5 2 -1 5 -14 5 -13 1 -21 -2 -18 -6 4 -3 -1 -12 -11 -19 -16 -13 -16
-13 1 -14 9 0 17 -4 17 -10 0 -6 -9 -6 -26 1 -15 5 -36 7 -48 4 -16 -5 -17 -4
-7 3 12 9 12 13 -2 26 -8 9 -19 16 -23 16 -4 0 -18 12 -31 27 -14 15 -28 22
-31 16 -10 -15 -72 -25 -69 -11 3 19 -35 22 -48 4 -17 -23 -75 -11 -75 16 0
12 -6 19 -17 17 -31 -3 -36 1 -24 15 8 10 9 16 1 21 -5 3 -10 1 -10 -6 0 -7
-9 -3 -20 9 -24 26 -27 26 -46 8 -19 -19 -18 -32 1 -16 9 7 19 10 23 6 4 -4
-1 -12 -11 -17 -9 -6 -23 -16 -29 -23 -10 -11 -15 -11 -25 0 -18 18 -16 79 3
99 10 10 13 22 8 33 -6 15 -8 14 -11 -5 -5 -26 -23 -32 -23 -8 0 29 -19 14
-26 -20 -5 -27 -9 -33 -19 -25 -9 7 -21 7 -40 0 -22 -8 -25 -13 -16 -24 8 -10
9 -16 1 -21 -5 -3 -10 0 -10 9 0 8 -5 16 -11 18 -6 2 -13 17 -14 33 -3 28 -3
29 11 11 14 -19 14 -19 14 1 0 12 4 24 9 27 13 8 2 43 -14 50 -15 5 -30 -28
-20 -44 3 -5 -1 -10 -9 -10 -9 0 -16 -9 -16 -20 0 -26 -18 -26 -22 0 -2 12 -7
20 -11 20 -5 -1 -17 9 -28 21 l-19 22 -22 -24 c-15 -17 -19 -19 -15 -6 4 11 1
20 -8 23 -9 4 -13 16 -10 35 2 19 -1 29 -10 29 -16 0 -26 -57 -11 -65 6 -3 1
-3 -11 -1 -13 2 -23 0 -23 -6 0 -5 -5 -6 -10 -3 -6 4 -3 17 10 35 24 33 20 37
-37 35 -24 0 -43 3 -43 7 0 4 7 8 16 8 8 0 12 5 9 11 -4 6 -13 8 -21 5 -9 -3
-14 1 -14 12 -1 16 -1 16 -14 0 -19 -25 -26 -22 -27 10 0 24 -2 22 -17 -15 -9
-24 -23 -43 -31 -43 -12 0 -11 3 2 18 23 25 22 46 0 37 -24 -10 -76 -14 -87
-7 -5 3 -1 9 10 13 12 5 1 8 -33 8 -29 1 -53 -3 -53 -9 0 -5 -7 -10 -15 -10
-8 0 -15 5 -15 10 0 6 7 10 15 10 9 0 15 9 15 21 0 18 -4 20 -27 15 -21 -5
-24 -4 -13 4 13 8 12 10 -4 10 -15 0 -16 3 -6 15 8 9 8 15 2 15 -6 0 -14 -9
-17 -20 -5 -17 -25 -29 -25 -15 0 21 37 75 54 78 12 3 6 5 -14 6 -19 1 -45 4
-57 7 -14 4 -23 2 -23 -5 0 -6 9 -11 20 -11 11 0 20 -5 20 -11 0 -6 -7 -9 -15
-5 -9 3 -15 0 -15 -9 0 -7 -5 -17 -11 -21 -7 -4 -10 7 -9 32 3 56 1 64 -11 64
-5 0 -7 -5 -3 -11 8 -14 -14 -29 -44 -29 -12 0 -25 -7 -28 -15 -4 -8 -12 -15
-20 -15 -18 0 13 38 41 50 16 7 17 9 3 9 -9 1 -20 -3 -23 -9 -10 -16 -38 -12
-31 5 3 8 1 15 -3 15 -5 0 -12 -7 -15 -16 -3 -9 -12 -14 -20 -11 -8 3 -16 -2
-19 -14 -3 -10 -10 -19 -15 -19 -6 0 -8 8 -5 19 3 10 0 22 -6 25 -6 4 -11 16
-11 27 0 10 -4 19 -10 19 -5 0 -10 -12 -10 -27 0 -14 -3 -23 -7 -20 -3 4 -13
1 -21 -6 -16 -12 -15 -10 7 35 14 28 8 78 -9 78 -12 0 -50 -32 -50 -42 0 -5 7
-8 15 -8 8 0 15 7 15 15 0 8 7 15 15 15 17 0 18 -2 9 -24 -8 -20 -33 -20 -70
-1 -16 8 -39 12 -51 9 -14 -4 -23 -2 -23 5 0 6 16 11 35 11 19 0 35 5 35 10 0
6 -16 10 -35 10 -19 0 -35 4 -35 10 0 5 8 7 18 3 15 -5 14 -4 -2 9 -10 8 -16
20 -12 26 3 6 2 13 -4 17 -5 3 -10 -1 -10 -9 0 -9 -4 -16 -9 -16 -5 0 -8 -11
-8 -25 0 -14 3 -28 8 -31 13 -8 11 -24 -3 -24 -7 0 -22 12 -35 28 -15 18 -22
22 -23 12 0 -9 -9 -16 -20 -16 -31 0 -24 14 15 30 21 9 35 22 35 32 0 16 -1
16 -20 -1 -19 -17 -50 -15 -50 4 0 5 -9 13 -20 16 -11 3 -20 10 -20 15 0 6 11
5 26 0 31 -12 34 -12 34 -1 0 5 -11 12 -25 15 -14 4 -23 11 -20 16 9 15 -7 12
-29 -5 -16 -12 -17 -18 -8 -27 16 -16 15 -28 -3 -28 -8 0 -15 6 -15 14 0 8 -8
17 -17 20 -14 6 -15 9 -4 15 11 7 9 11 -6 20 -16 8 -25 6 -43 -9 -25 -22 -35
-26 -25 -10 4 6 1 17 -5 25 -7 8 -10 20 -7 27 3 8 8 3 14 -12 10 -24 10 -24
21 -4 9 18 6 23 -20 39 -21 12 -28 14 -23 4 5 -8 0 -7 -12 4 -21 18 -63 23
-63 7 0 -5 -5 -10 -11 -10 -6 0 -9 9 -6 20 3 11 1 20 -4 20 -5 0 -9 -9 -9 -20
0 -11 -4 -20 -10 -20 -5 0 -10 9 -10 20 0 11 -4 20 -10 20 -5 0 -10 -11 -10
-25 0 -14 -4 -25 -10 -25 -5 0 -7 8 -4 18 4 10 3 13 -3 6 -4 -6 -21 -14 -38
-16 -16 -3 -24 -3 -17 -1 21 7 14 43 -8 43 -13 0 -20 7 -20 20 0 14 -7 20 -21
20 -17 0 -19 -3 -10 -14 18 -22 -3 -28 -36 -12 -15 8 -36 17 -46 20 -10 3 -15
11 -12 17 5 8 10 8 18 0 17 -17 27 -13 27 9 0 19 -6 22 -57 24 -10 1 -20 -10
-25 -24 -7 -22 -7 -21 -4 5 7 47 -5 59 -39 41 -16 -9 -32 -12 -35 -7 -8 12
-107 34 -120 26 -5 -3 -10 -1 -10 4 0 11 13 15 38 12 6 -1 12 3 12 9 0 5 -12
11 -27 11 -28 2 -28 2 -3 6 14 3 29 12 33 20 6 10 17 13 35 9 20 -5 23 -4 12
4 -8 5 -31 10 -50 10 -26 0 -31 -3 -20 -10 13 -8 13 -10 -2 -10 -9 0 -20 5
-23 10 -3 6 -14 10 -23 10 -9 0 -27 12 -40 28 l-24 27 -19 -25 c-10 -14 -22
-29 -27 -35 -4 -5 -6 -17 -4 -27 2 -9 -2 -19 -8 -23 -8 -5 -11 3 -9 26 1 19
-4 50 -11 69 l-14 35 -7 -30 -7 -30 -1 29 c-1 20 -5 27 -16 22 -8 -3 -21 2
-30 10 -17 18 -37 10 -29 -11 3 -7 18 -15 32 -17 15 -2 27 -7 27 -13 0 -5 4
-16 8 -22 6 -9 0 -13 -19 -13 -22 0 -25 2 -14 15 10 12 9 16 -5 21 -9 4 -21 2
-28 -5 -14 -14 -40 -15 -32 -1 4 6 11 8 16 5 5 -4 9 3 9 14 0 18 -6 19 -62 17
-35 -2 -58 -1 -51 1 7 2 9 11 6 19 -3 8 0 14 6 14 7 0 14 -6 17 -13 3 -9 16
-12 34 -9 32 5 31 22 -1 22 -27 0 -24 20 4 21 l22 2 -22 4 c-25 5 -30 19 -10
26 6 2 9 8 4 12 -4 5 -13 1 -20 -9 -8 -12 -30 -18 -67 -20 -48 -3 -50 -3 -15
4 22 4 34 8 26 8 -8 1 -11 10 -8 23 3 12 0 22 -9 26 -8 3 -14 11 -14 19 0 8
-8 14 -17 14 -15 0 -16 -2 -3 -10 11 -7 5 -10 -22 -10 -51 0 -48 -17 5 -26 23
-4 37 -9 30 -11 -6 -2 -28 0 -47 6 -35 9 -36 9 -36 -20 0 -41 -15 -36 -18 6
-2 19 2 35 8 35 21 0 9 20 -12 21 -16 0 -18 2 -8 6 15 6 50 42 50 51 0 3 -8
-2 -18 -11 -24 -22 -72 -23 -72 -2 0 8 -4 15 -9 15 -5 0 -16 6 -23 13 -17 18
-78 30 -78 16 0 -6 -4 -7 -10 -4 -6 4 -11 -8 -11 -27 -1 -23 -3 -26 -6 -10 -2
12 -9 22 -14 22 -5 0 0 9 11 20 16 16 18 25 10 40 -11 21 -30 27 -30 10 0 -5
-4 -10 -10 -10 -5 0 -10 9 -10 20 0 11 -5 20 -10 20 -6 0 -9 5 -8 11 4 16 -14
21 -32 9 -13 -9 -13 -11 0 -20 12 -7 12 -12 2 -22 -9 -9 -12 -8 -12 6 0 9 -4
14 -10 11 -6 -3 -7 1 -4 10 5 13 2 15 -19 10 -28 -7 -48 12 -23 21 20 8 21 24
1 24 -9 0 -18 -7 -21 -15 -8 -19 -28 -19 -44 0 -7 9 -21 13 -31 10 -9 -3 -20
-1 -24 5 -3 5 2 10 12 11 14 0 15 2 3 6 -8 3 -24 13 -35 23 -27 23 -53 31 -60
19 -4 -5 -11 -7 -16 -3 -13 8 10 35 27 32 7 -2 14 2 16 7 2 6 -10 11 -26 13
-18 2 -26 0 -21 -7 7 -13 -5 -14 -21 -3 -6 4 -10 19 -8 35 1 15 -2 27 -7 27
-5 0 -9 -6 -9 -14 0 -8 -7 -13 -17 -11 -61 12 -75 17 -69 22 10 10 46 11 52 1
9 -14 21 -9 27 12 4 17 0 20 -28 20 -24 0 -35 5 -38 18 -4 16 -4 16 -10 0 -4
-10 -9 -25 -12 -33 -8 -28 -26 -16 -19 13 7 24 6 26 -9 13 -23 -18 -21 -29 6
-51 12 -10 19 -21 15 -25 -4 -4 -21 7 -39 23 -25 23 -41 30 -65 28 -18 -1 -30
2 -27 7 3 4 24 7 47 5 31 -2 41 1 41 12 0 8 -5 14 -10 13 -5 -1 -27 -4 -47 -8
-29 -6 -38 -4 -38 7 0 10 11 13 40 11 22 -1 40 2 40 6 0 16 -28 20 -62 10 -45
-12 -45 -12 -53 18 -5 19 -2 31 10 39 18 13 3 30 -17 18 -6 -4 -16 0 -23 9 -9
12 -21 15 -48 10 -42 -6 -50 -23 -12 -23 14 0 25 5 25 10 0 6 5 10 10 10 19 0
10 -17 -17 -30 -16 -8 -38 -23 -50 -33 -17 -15 -25 -17 -40 -8 -16 10 -15 10
7 8 23 -2 25 2 28 39 3 47 30 67 70 53 12 -5 22 -5 22 0 0 10 -59 23 -71 15
-15 -9 -49 15 -43 31 4 9 0 15 -10 15 -18 0 -22 -26 -5 -32 16 -5 1 -33 -31
-57 -25 -18 -30 -19 -30 -6 0 9 4 14 9 11 5 -3 9 5 9 19 0 21 -4 23 -31 18
-23 -5 -28 -3 -22 6 4 8 20 11 37 9 40 -6 45 8 6 21 -47 17 -91 14 -84 -4 3
-8 1 -15 -3 -15 -5 0 -11 7 -15 15 -3 8 -1 15 5 15 6 0 7 5 4 10 -5 8 -11 7
-21 -1 -11 -9 -14 -8 -14 4 0 8 6 18 13 20 9 4 8 8 -3 16 -12 8 -12 13 -2 23
6 6 12 16 12 22 0 6 -5 5 -12 -2 -7 -7 -19 -12 -28 -11 -10 0 -11 2 -2 6 14 6
16 33 2 33 -5 0 -13 -12 -16 -27 -10 -41 -17 -49 -24 -27 -4 10 -3 24 2 31 7
9 5 18 -7 29 -14 15 -18 15 -26 3 -12 -19 -11 -33 2 -46 6 -6 9 -19 6 -29 -4
-16 -5 -15 -6 4 0 12 -6 22 -12 22 -6 0 -9 12 -7 27 4 33 -15 41 -30 11 -10
-22 -11 -21 -11 10 -1 29 1 33 20 27 17 -6 20 -3 17 12 -2 13 -12 18 -33 18
-25 0 -30 -4 -27 -22 3 -20 0 -22 -20 -14 -17 6 -24 18 -28 47 -3 25 -8 34
-13 27 -5 -7 -5 -17 -2 -23 3 -5 1 -18 -4 -27 -9 -16 -11 -15 -12 7 -1 14 -1
33 0 43 1 9 -3 17 -9 17 -8 0 -10 9 -6 26 5 17 3 23 -4 19 -6 -4 -10 -19 -8
-33 2 -19 -2 -28 -15 -30 -15 -3 -18 0 -12 17 4 12 0 30 -9 43 -9 12 -16 18
-17 13 0 -6 -4 -1 -9 10 -7 17 -9 17 -9 3 -1 -22 -19 -24 -27 -3 -8 20 -44 19
-44 -1 0 -8 -4 -12 -10 -9 -14 9 -12 21 7 40 16 16 15 18 -7 35 -12 9 -20 22
-16 29 5 7 1 9 -9 5 -10 -4 -13 -13 -9 -26 4 -14 2 -19 -7 -16 -8 3 -18 19
-23 36 -7 24 -15 32 -32 32 -13 0 -28 9 -34 20 -7 12 -16 17 -27 13 -12 -5
-15 -2 -10 9 8 21 -3 30 -20 17 -15 -13 -43 4 -43 28 0 8 -7 21 -15 29 -13 14
-15 11 -14 -23 0 -30 2 -34 9 -18 8 18 9 17 9 -8 1 -46 -23 -26 -30 24 -3 24
-7 33 -7 19 -2 -18 -8 -26 -22 -27 -11 -1 -20 2 -20 8 0 5 7 9 15 9 18 0 20
19 3 21 -7 1 -29 2 -48 2 -28 0 -30 1 -7 4 19 3 27 10 27 24 0 10 -6 19 -12
19 -7 0 -24 12 -37 25 -14 16 -30 23 -41 20 -12 -4 -23 7 -40 40 -19 37 -28
45 -52 45 -23 0 -28 -4 -28 -24 0 -14 -4 -27 -8 -30 -4 -3 -7 8 -6 25 1 16 -2
29 -7 29 -4 0 -6 7 -3 15 4 10 0 15 -11 15 -11 0 -15 -5 -11 -15 3 -9 0 -15
-9 -15 -8 0 -15 7 -15 15 0 8 -4 15 -10 15 -5 0 -10 -10 -10 -22 -1 -22 -1
-22 -12 -4 -8 15 -8 21 0 24 7 2 12 13 12 24 0 13 -5 18 -14 15 -21 -8 -76 15
-76 32 0 39 61 47 120 15z m9700 -2179 c0 4 7 2 16 -5 13 -12 12 -16 -12 -37
-15 -13 -25 -24 -23 -26 2 -1 14 -11 27 -22 18 -15 22 -15 17 -3 -4 9 -2 19 4
23 7 4 9 -6 6 -30 -3 -29 -1 -36 10 -32 7 3 15 2 17 -2 2 -5 14 -12 27 -16 20
-6 23 -4 18 9 -4 11 -3 15 4 11 6 -4 8 -13 5 -20 -6 -17 24 -43 46 -40 9 2 22
-3 29 -11 10 -12 9 -13 -5 -8 -11 4 -16 0 -17 -12 -1 -17 -2 -17 -6 -1 -3 10
-14 17 -29 17 -25 0 -33 -15 -11 -23 6 -2 8 -8 4 -13 -10 -11 -28 17 -22 34 8
23 -7 40 -43 48 -61 12 -88 -1 -76 -39 3 -10 -1 -19 -10 -23 -20 -8 -21 -44
-1 -44 9 0 20 12 25 26 11 28 33 28 38 -1 3 -11 0 -15 -7 -11 -14 9 -42 -17
-33 -30 4 -5 15 -10 25 -11 9 -2 24 -4 33 -5 9 -2 19 3 21 10 3 7 -4 12 -18
12 l-22 0 24 26 c22 23 24 24 36 8 8 -11 9 -21 3 -29 -6 -7 -6 -23 -1 -41 5
-16 10 -24 10 -18 1 7 12 9 28 6 21 -4 25 -2 20 12 -5 11 -1 16 13 16 22 0 27
16 8 23 -8 2 -9 8 -4 13 5 5 11 4 13 -3 3 -7 19 -14 36 -14 l32 -1 -29 -7
c-16 -3 -31 -12 -34 -20 -4 -11 4 -13 36 -9 32 5 42 3 44 -10 2 -10 15 -15 36
-16 27 -1 32 3 32 22 0 13 4 21 9 18 5 -3 22 1 39 9 31 16 82 7 82 -15 0 -14
-11 -13 -30 5 -14 13 -20 12 -53 -2 -37 -17 -48 -32 -24 -34 6 0 2 -4 -11 -9
-12 -5 -29 -7 -37 -4 -19 8 -19 -5 0 -30 16 -21 5 -46 -20 -46 -8 0 -16 -8
-18 -17 -4 -15 -5 -15 -6 -2 0 9 6 22 14 29 20 16 19 44 -1 61 -15 12 -16 10
-9 -19 l7 -34 -26 23 c-26 23 -26 24 -6 31 29 11 25 18 -10 18 -20 0 -30 -5
-30 -15 0 -8 -4 -15 -10 -15 -5 0 -10 7 -10 15 0 26 -20 16 -36 -17 -14 -32
-15 -32 -9 -5 3 18 2 26 -4 23 -5 -4 -12 -3 -15 2 -3 5 -24 7 -47 5 -33 -3
-40 0 -35 12 3 10 -1 15 -13 15 -33 0 -81 31 -87 56 -3 13 -12 24 -20 24 -17
0 -18 22 -2 38 9 9 9 12 0 12 -7 0 -12 7 -12 15 0 9 -7 27 -16 40 -13 20 -14
25 -3 25 19 0 42 -55 49 -115 0 -5 7 -2 14 8 11 14 12 27 4 54 -5 19 -7 37 -4
41 3 3 6 -2 6 -11 0 -9 7 -17 15 -17 16 0 13 53 -5 75 -8 10 -7 14 2 18 10 4
10 7 1 14 -7 5 -10 19 -6 31 4 18 8 20 19 11 8 -6 14 -8 14 -4z m865 -882 c-6
-24 10 -33 18 -10 3 9 8 9 21 -2 13 -11 22 -11 41 -3 18 8 26 8 35 -3 7 -8 15
-14 18 -13 17 2 23 -3 17 -12 -5 -8 -11 -7 -21 1 -12 10 -16 8 -21 -9 -8 -31
-21 -28 -15 3 5 28 3 29 -32 16 -17 -7 -26 -7 -28 1 -2 6 -10 8 -16 4 -19 -12
-4 -26 29 -26 16 0 29 -4 29 -10 0 -5 -9 -10 -20 -10 -11 0 -20 -7 -20 -16 0
-11 6 -14 23 -9 18 6 20 5 10 -6 -10 -9 -18 -10 -37 -1 -22 10 -26 8 -31 -9
-9 -28 -53 -69 -73 -68 -12 0 -11 3 6 9 12 5 22 14 22 20 0 13 -13 13 -28 -2
-6 -6 -14 -9 -18 -5 -11 11 6 25 36 32 21 5 30 13 30 26 0 11 -4 17 -10 14 -5
-3 -10 1 -10 9 0 12 5 14 25 6 19 -7 25 -6 25 4 0 30 -13 46 -36 46 -24 0 -25
-3 -28 -64 -1 -11 -6 -21 -11 -23 -6 -2 -9 15 -7 42 3 31 0 45 -8 45 -8 0 -10
-11 -6 -34 4 -20 2 -37 -4 -41 -6 -4 -10 7 -10 29 0 19 -3 42 -7 52 -5 15 -1
16 40 10 40 -6 48 -4 54 10 4 10 2 19 -5 22 -7 2 -12 8 -12 13 0 5 9 4 20 -3
15 -9 19 -20 15 -35z m255 -204 c19 -1 27 -3 18 -6 -10 -2 -18 -8 -18 -13 0
-5 7 -7 15 -4 8 4 15 1 15 -5 0 -6 -18 -11 -41 -11 -34 0 -40 -3 -35 -16 6
-14 0 -16 -39 -12 -25 3 -45 2 -45 -3 0 -7 43 -14 135 -21 18 -2 30 -9 31 -18
0 -8 -1 -10 -3 -5 -2 6 -41 11 -88 13 -78 1 -85 0 -85 -18 0 -10 13 -27 30
-37 37 -21 37 -27 3 -42 -24 -11 -25 -11 -13 4 9 11 10 19 2 27 -8 8 -16 1
-31 -23 -12 -19 -16 -35 -11 -37 17 -6 11 -31 -11 -53 -17 -17 -23 -19 -30 -8
-14 22 -11 29 11 29 11 0 20 4 20 10 0 5 -29 8 -70 6 -38 -2 -70 1 -70 5 0 5
7 9 15 9 7 0 18 7 23 16 5 9 15 14 21 10 6 -4 9 -12 6 -17 -7 -10 18 -13 28
-3 6 7 -12 45 -28 56 -5 4 -14 3 -19 -2 -18 -18 -46 -11 -46 10 0 23 10 26 29
8 11 -10 14 -10 18 0 6 14 43 16 43 2 0 -5 5 -10 11 -10 7 0 9 13 4 38 -6 34
-5 35 8 17 27 -39 29 -56 6 -62 -12 -4 -18 -11 -15 -20 3 -8 6 -19 6 -25 0 -6
9 -3 20 7 12 10 19 24 16 31 -2 6 0 16 4 20 13 13 1 54 -15 54 -8 0 -11 8 -8
20 6 23 19 26 26 8 4 -10 8 -9 16 2 9 12 4 16 -29 18 -37 3 -59 22 -25 22 8 0
15 5 15 10 0 18 38 10 43 -9 4 -18 53 -35 62 -21 3 4 -9 10 -25 14 -17 3 -30
10 -30 14 0 6 18 6 43 1 57 -11 91 -10 50 2 -38 11 -59 36 -22 26 13 -4 40 -7
59 -8z"/>
<path d="M40165 15000 c-3 -11 -14 -20 -23 -20 -16 -1 -16 -2 1 -14 25 -20 22
-56 -5 -56 -16 0 -19 -3 -11 -11 12 -12 50 7 51 26 1 13 32 19 32 7 0 -6 -6
-13 -12 -15 -7 -3 -3 -6 10 -6 12 -1 30 4 41 10 21 14 95 3 86 -12 -4 -5 3
-25 15 -43 19 -32 24 -34 56 -29 32 5 36 4 32 -13 -2 -12 -13 -20 -30 -22 -22
-3 -26 -8 -26 -33 1 -18 6 -29 16 -29 8 0 12 6 9 14 -3 8 9 21 32 34 37 21 37
22 31 72 -8 59 -17 72 -26 36 -6 -27 -18 -33 -29 -16 -9 15 -25 2 -25 -21 0
-32 -18 -21 -31 19 -16 50 -41 72 -84 72 -31 0 -35 3 -35 25 0 19 7 26 33 34
17 5 24 10 15 10 -9 1 -29 -4 -43 -11 -21 -9 -31 -9 -46 0 -25 16 -27 15 -34
-8z"/>
</g>
</svg>
