<?xml version="1.0" standalone="no"?>
<!DOCTYPE svg PUBLIC "-//W3C//DTD SVG 20010904//EN"
 "http://www.w3.org/TR/2001/REC-SVG-20010904/DTD/svg10.dtd">
<svg version="1.0" xmlns="http://www.w3.org/2000/svg"
 width="487.000000pt" height="512.000000pt" viewBox="0 0 487.000000 512.000000"
 preserveAspectRatio="xMidYMid meet">
<metadata>
Created by potrace 1.16, written by Peter Selinger 2001-2019
</metadata>
<g transform="translate(0.000000,512.000000) scale(0.100000,-0.100000)"
fill="#000000" stroke="none">
<path d="M2224 4446 c-70 -22 -163 -77 -204 -122 -22 -24 -40 -39 -40 -34 0
18 63 81 106 106 55 33 58 43 3 12 -65 -37 -132 -109 -178 -194 -36 -68 -47
-71 -25 -7 6 16 5 16 -9 -2 -9 -11 -17 -25 -17 -31 0 -7 -6 -14 -13 -17 -8 -3
-29 -42 -48 -88 -21 -51 -41 -84 -51 -87 -10 -2 -18 -12 -19 -21 0 -9 -6 -3
-14 14 -19 40 -18 93 0 145 18 51 14 61 -9 25 -9 -14 -21 -23 -25 -21 -10 6
-31 -38 -31 -64 0 -13 -5 -17 -14 -14 -19 7 -53 -95 -41 -122 4 -11 9 -27 10
-37 1 -9 12 -28 24 -41 l23 -25 -32 3 c-41 3 -59 35 -63 111 -1 30 -5 55 -8
55 -8 0 -45 -42 -53 -60 -3 -8 -3 1 0 20 l5 35 -20 -25 c-32 -39 -27 -83 15
-130 34 -38 36 -51 4 -31 -19 13 -34 2 -19 -15 8 -10 7 -17 -7 -31 -16 -16
-17 -16 -12 -1 4 10 1 19 -8 22 -19 7 -18 -13 2 -44 8 -14 -1 -7 -21 15 -21
23 -32 30 -25 18 13 -28 -1 -30 -25 -3 -20 22 -41 27 -29 8 5 -7 9 -21 9 -32
2 -18 19 -36 61 -63 15 -10 16 -14 6 -21 -10 -7 -5 -11 20 -17 l33 -9 -33 -3
c-18 -3 -30 -9 -27 -14 4 -5 -3 -9 -14 -9 -22 0 -40 -19 -19 -21 7 -1 16 -1
20 0 10 1 -22 -68 -42 -94 -31 -38 -66 -105 -56 -105 3 0 19 24 37 52 57 93
93 101 52 12 -14 -30 -28 -73 -30 -95 -4 -27 -9 -36 -14 -27 -9 13 -14 -15 -9
-57 3 -35 20 -41 20 -8 0 18 5 35 10 38 6 3 10 16 10 28 0 30 38 147 39 122 1
-15 6 -11 17 14 8 19 17 31 21 28 3 -4 12 1 19 11 8 9 4 -12 -8 -50 -17 -53
-25 -65 -35 -56 -10 8 -13 0 -14 -43 0 -40 -3 -49 -9 -34 -6 14 -9 15 -9 5 -1
-9 3 -20 8 -25 6 -6 4 -25 -5 -50 -11 -32 -11 -51 -3 -98 13 -66 29 -84 30
-35 1 18 4 44 9 58 6 21 8 22 15 8 4 -9 4 -21 1 -27 -9 -14 -9 -163 0 -186 7
-18 6 -19 -12 -5 -13 10 -10 3 9 -22 15 -20 27 -38 27 -40 0 -2 -22 -1 -50 0
-33 3 -50 0 -50 -8 0 -6 -4 -9 -9 -6 -4 3 -17 -2 -27 -10 -10 -9 -13 -13 -6
-9 6 3 12 2 12 -2 0 -5 -10 -13 -22 -18 -13 -6 -22 -18 -22 -27 1 -10 -2 -16
-6 -13 -5 3 -14 -20 -20 -52 -20 -93 3 -240 50 -333 27 -54 97 -127 148 -158
40 -23 58 -27 124 -27 50 0 74 3 68 10 -21 27 -71 301 -96 528 l-26 248 27 75
c15 42 38 87 51 101 27 30 30 22 11 -33 -24 -68 -28 -94 -16 -92 8 2 11 -32
10 -122 -2 -145 28 -333 88 -558 26 -100 24 -92 62 -194 16 -43 29 -84 29 -92
0 -9 20 -54 45 -101 43 -82 119 -168 289 -323 20 -19 36 -37 36 -41 0 -4 27
-27 60 -51 33 -24 60 -45 60 -47 0 -7 -67 31 -156 88 -50 33 -94 59 -99 59 -7
0 -3 -64 11 -170 2 -19 5 -116 7 -215 3 -235 -5 -261 -79 -256 -19 2 -77 -37
-95 -63 -12 -16 -54 3 -72 34 -13 21 -16 40 -12 61 7 29 6 30 -14 20 -11 -6
-37 -31 -58 -56 -26 -32 -42 -43 -55 -39 -28 9 -41 -37 -23 -80 8 -19 20 -38
26 -42 8 -4 7 -9 -2 -15 -11 -7 -11 -9 -1 -9 7 0 30 -16 50 -35 20 -19 49 -41
65 -48 15 -6 27 -15 27 -19 0 -4 28 -22 63 -39 34 -18 83 -44 110 -57 26 -14
47 -29 47 -34 0 -5 4 -7 9 -4 13 9 111 -23 111 -36 0 -6 2 -9 5 -6 3 3 45 -4
93 -14 48 -11 103 -20 122 -20 19 -1 38 -6 42 -12 5 -8 10 -8 18 0 7 7 24 9
45 4 19 -4 36 -5 39 -3 3 3 31 7 63 8 89 4 259 49 358 95 127 58 263 163 294
227 29 60 32 122 6 137 -11 6 -32 19 -48 29 -15 11 -34 20 -42 21 -8 1 -18 6
-22 11 -4 4 -2 5 5 1 6 -4 12 -5 12 -2 0 8 -61 38 -66 33 -3 -2 2 -10 11 -17
34 -28 9 -87 -62 -150 -72 -63 -145 -102 -282 -149 -202 -69 -303 -71 -504 -7
-118 38 -148 54 -101 53 19 0 37 13 63 44 65 79 80 89 127 89 53 0 74 18 100
86 24 66 61 118 129 183 31 30 75 77 99 105 201 242 210 251 228 224 4 -7 9
-60 10 -118 1 -76 3 -52 8 85 3 105 10 197 16 207 5 9 25 34 44 55 73 79 124
150 155 218 48 102 53 134 7 39 -22 -45 -44 -83 -48 -85 -5 -2 -25 -24 -44
-49 -18 -25 -52 -65 -74 -91 -23 -25 -61 -69 -86 -99 -108 -130 -159 -160
-271 -160 -79 0 -160 19 -209 48 -50 31 -104 107 -123 174 -27 93 -50 148 -64
148 -7 0 -13 4 -13 9 0 5 25 13 55 16 35 5 55 12 55 20 0 19 19 22 159 30 68
4 142 13 165 21 39 13 39 13 6 8 -103 -16 -215 -19 -268 -8 -32 7 -51 13 -44
13 8 1 25 10 39 21 14 11 29 17 34 14 5 -3 9 -1 9 4 0 16 53 33 145 48 49 8
120 22 157 31 54 14 70 15 80 5 20 -20 -10 -62 -65 -90 -26 -14 -46 -27 -43
-29 2 -2 21 5 43 16 45 23 137 116 184 186 l33 50 -34 -26 c-63 -47 -190 -91
-317 -109 -73 -10 -103 -6 -103 12 0 18 81 101 140 143 44 32 51 40 35 43 -11
2 -24 7 -30 12 -5 4 -35 8 -65 9 -38 1 -74 11 -116 31 -80 39 -112 39 -154 -1
-22 -22 -35 -28 -40 -19 -4 6 -12 -16 -19 -52 -18 -90 -45 -146 -74 -153 -41
-11 -148 1 -168 19 -11 9 -36 42 -55 74 -20 31 -45 66 -55 77 -20 23 -56 85
-98 170 -48 98 -25 133 89 136 34 0 33 1 -19 20 -65 23 -94 47 -87 72 3 12 0
17 -7 14 -20 -8 -12 80 9 105 13 14 14 19 4 13 -8 -4 -5 2 8 15 14 13 31 20
42 17 14 -4 17 -1 13 12 -4 9 -3 13 1 9 4 -3 21 -2 37 2 l30 9 -21 -33 c-53
-87 9 -216 105 -216 53 1 110 34 129 75 26 53 17 117 -20 157 -21 22 -23 28
-9 20 44 -23 104 -117 105 -164 0 -10 5 -18 10 -18 6 0 10 7 10 15 0 11 6 10
25 -7 37 -32 47 -83 35 -166 -6 -38 -10 -91 -8 -118 l3 -47 15 29 c8 16 29 54
46 84 31 53 31 57 21 115 -6 33 -11 125 -11 205 l-1 145 -37 76 c-21 42 -38
87 -38 101 0 42 -31 118 -53 130 -35 18 -316 3 -407 -22 -41 -12 -81 -27 -90
-33 -8 -6 -5 0 8 14 12 14 22 33 22 42 0 11 5 14 17 10 10 -4 14 -2 10 4 -6
10 33 65 74 106 50 49 189 124 301 161 128 44 360 106 395 106 18 0 50 7 70
15 63 25 184 43 252 37 49 -3 62 -2 56 8 -5 9 -2 10 14 5 16 -5 20 -3 15 8 -5
14 -91 57 -113 57 -20 0 -12 32 9 37 11 3 20 9 20 14 0 5 7 9 15 9 8 0 15 5
15 10 0 11 -42 4 -73 -12 -24 -12 -33 -3 -17 17 17 21 10 26 -40 28 -35 1 -40
4 -36 20 3 13 0 17 -10 13 -12 -5 -12 -1 1 24 20 39 77 84 161 125 41 20 61
34 48 34 -36 2 -114 -30 -129 -52 -8 -12 -15 -17 -15 -12 0 6 -3 6 -8 0 -11
-17 -92 -77 -92 -70 0 4 10 21 22 38 l22 32 -39 -30 c-40 -29 -34 -10 10 28
26 24 0 11 -45 -22 l-34 -26 22 32 c32 45 99 90 162 107 16 5 10 -2 -17 -19
-49 -30 -57 -43 -13 -20 17 9 82 26 145 39 90 19 123 22 151 15 19 -6 41 -8
47 -6 7 2 -23 12 -67 22 -108 24 -176 17 -274 -30 -42 -21 -93 -44 -112 -52
l-35 -15 24 26 c33 35 13 33 -38 -5 -34 -24 -40 -26 -31 -10 6 12 28 39 49 61
21 22 35 43 32 47 -3 3 1 4 9 1 8 -3 51 0 95 7 44 7 73 13 64 14 -9 0 -31 8
-48 17 -31 16 -35 15 -80 -6 -30 -14 -66 -44 -97 -80 -51 -61 -73 -77 -53 -37
11 21 11 21 -17 -3 -16 -14 -34 -32 -42 -40 -8 -9 -7 -3 3 18 l16 34 -30 -23
c-44 -32 -49 -17 -13 41 26 41 28 48 12 40 -11 -6 -20 -8 -20 -5 0 3 -13 -1
-29 -10 -55 -28 -41 2 22 48 58 44 117 69 227 98 l45 11 -43 13 c-73 22 -139
28 -176 15 -21 -7 -54 -33 -81 -63 -36 -41 -43 -46 -35 -24 14 38 5 34 -27
-14 -22 -33 -28 -37 -35 -24 -5 8 -6 24 -3 35 9 27 -19 16 -40 -16 -8 -13 -20
-24 -25 -24 -6 0 -27 -18 -49 -40 -36 -38 -38 -38 -33 -13 l5 26 -31 -21 c-28
-21 -31 -21 -34 -5 -2 10 2 28 10 40 17 28 0 38 -23 13 -10 -11 -23 -20 -28
-20 -6 0 -20 -8 -31 -17 -20 -17 -20 -17 -6 2 8 11 25 32 39 47 41 46 13 46
-30 0 -58 -60 -63 -56 -15 12 11 16 15 26 8 22 -21 -12 -13 9 11 32 29 28 153
92 177 92 10 0 22 5 25 10 8 12 0 12 -51 -4z"/>
<path d="M2970 4144 c-60 -26 -110 -85 -54 -64 14 6 49 9 77 9 l52 -2 -46 -6
c-41 -6 -99 -33 -99 -47 0 -3 9 -3 20 0 11 3 30 9 42 12 20 6 21 5 10 -9 -12
-14 -9 -17 25 -22 77 -13 140 -35 185 -65 36 -24 56 -30 90 -29 24 1 49 4 55
7 20 7 -6 26 -54 40 -22 7 -68 31 -102 53 -67 44 -84 65 -23 28 61 -38 113
-62 118 -56 3 3 -8 13 -25 23 -17 10 -31 22 -31 26 0 13 52 -17 99 -56 44 -37
61 -44 61 -26 0 6 9 10 21 10 28 0 15 17 -20 25 -30 6 -68 50 -63 72 2 7 -13
20 -32 30 -19 9 -33 20 -31 24 3 4 -7 15 -21 24 -15 9 -23 12 -20 6 4 -6 1
-11 -8 -11 -8 0 -18 5 -21 10 -10 16 -28 12 -21 -5 5 -14 2 -14 -24 0 -37 19
-115 19 -160 -1z"/>
<path d="M3220 3802 c0 -5 -6 -9 -12 -9 -16 0 -142 -26 -147 -30 -2 -1 11 -15
29 -30 52 -43 109 -121 120 -164 6 -22 13 -73 16 -112 3 -40 7 -78 10 -86 8
-26 34 -406 34 -510 0 -57 3 -102 6 -98 4 3 12 46 20 94 7 48 24 121 38 162
14 41 23 78 20 82 -2 5 0 16 5 26 18 31 40 123 34 138 -3 9 1 15 10 15 21 0
27 22 33 119 3 55 10 91 19 101 16 18 21 60 7 60 -14 0 -7 43 8 48 7 3 10 0 7
-6 -4 -5 2 -12 12 -15 17 -4 18 -2 9 18 -5 12 -17 22 -27 21 -9 -1 -15 5 -13
14 2 8 0 12 -3 8 -4 -4 -17 -2 -28 4 -18 9 -19 11 -4 20 25 14 21 24 -20 54
-21 14 -30 24 -20 21 11 -4 17 -1 17 9 0 10 -6 13 -18 10 -10 -4 -27 1 -38 9
-10 8 -29 15 -42 15 -20 0 -22 -4 -17 -22 6 -22 6 -22 -11 2 -26 36 -54 53
-54 32z"/>
<path d="M2750 3400 c-135 -19 -170 -40 -170 -99 0 -29 5 -38 25 -48 17 -7 27
-8 31 -1 4 6 9 6 13 1 3 -6 35 -6 76 -1 126 14 302 21 350 13 40 -5 56 -15 96
-56 43 -44 47 -46 40 -21 -25 87 -81 158 -147 189 -61 28 -204 38 -314 23z"/>
<path d="M2687 3142 c-20 -22 -21 -49 -5 -101 l12 -38 45 32 c26 18 61 37 80
44 75 25 187 6 262 -43 50 -33 51 -17 2 23 -49 40 -82 55 -175 80 -100 27
-198 28 -221 3z"/>
<path d="M2785 3048 c-40 -14 -75 -46 -91 -85 -22 -50 -16 -52 12 -5 24 40 67
72 96 72 7 0 -2 -12 -19 -26 -61 -48 -67 -148 -11 -201 26 -24 37 -28 89 -28
57 0 63 2 95 37 26 29 34 46 34 76 0 49 -34 101 -80 124 l-35 17 32 1 c73 1
134 -21 179 -64 27 -26 44 -52 45 -67 l0 -24 11 22 c23 48 -33 117 -121 148
-50 17 -190 19 -236 3z"/>
</g>
</svg>
