<?xml version="1.0" standalone="no"?>
<!DOCTYPE svg PUBLIC "-//W3C//DTD SVG 20010904//EN"
 "http://www.w3.org/TR/2001/REC-SVG-20010904/DTD/svg10.dtd">
<svg version="1.0" xmlns="http://www.w3.org/2000/svg"
 width="492.000000pt" height="507.000000pt" viewBox="0 0 492.000000 507.000000"
 preserveAspectRatio="xMidYMid meet">

<g transform="translate(0.000000,507.000000) scale(0.100000,-0.100000)"
fill="#000000" stroke="none">
<path d="M2618 4573 c6 -2 18 -2 25 0 6 3 1 5 -13 5 -14 0 -19 -2 -12 -5z"/>
<path d="M2568 4563 c7 -3 16 -2 19 1 4 3 -2 6 -13 5 -11 0 -14 -3 -6 -6z"/>
<path d="M2197 4446 c-74 -31 -132 -71 -165 -113 -13 -19 -27 -31 -30 -29 -3
3 1 12 8 21 7 9 11 18 8 20 -9 9 -48 -42 -83 -106 -26 -49 -35 -58 -35 -39 0
19 -10 8 -46 -50 -26 -41 -51 -88 -57 -105 -5 -16 -20 -40 -33 -53 l-23 -22
-12 21 c-15 30 -13 107 5 150 13 30 13 36 1 36 -8 0 -12 -4 -9 -8 2 -4 -7 -16
-20 -27 -14 -10 -31 -32 -38 -48 -7 -16 -18 -33 -25 -39 -16 -12 -40 -94 -35
-117 3 -15 7 -13 29 10 l25 27 -21 -29 c-25 -35 -26 -53 -4 -78 19 -21 10 -37
-11 -19 -11 9 -15 9 -18 -1 -9 -25 -31 36 -36 99 l-5 63 -22 -23 c-12 -12 -27
-31 -34 -42 -11 -18 -11 -18 -5 5 4 14 9 31 12 39 10 26 -17 1 -34 -31 -20
-39 -12 -69 34 -120 20 -23 31 -38 23 -33 -20 12 -62 15 -55 4 3 -5 10 -7 15
-4 5 4 9 -1 9 -9 0 -21 -18 -30 -34 -17 -23 19 -26 -1 -4 -33 l21 -31 -37 35
c-27 25 -35 29 -30 15 6 -18 4 -17 -19 4 -31 29 -37 26 -30 -12 4 -19 19 -37
45 -53 21 -14 36 -29 33 -34 -3 -5 3 -13 12 -19 16 -9 15 -10 -6 -11 -16 0
-21 -4 -17 -15 4 -11 -1 -15 -19 -15 -13 0 -26 -4 -29 -9 -3 -5 2 -8 12 -7 18
1 19 -10 6 -53 -6 -22 -5 -23 19 -19 l26 5 -18 -26 c-30 -43 -53 -115 -49
-157 3 -36 5 -33 23 41 12 49 25 79 32 78 8 -2 10 4 6 14 -5 12 -3 14 7 8 10
-6 12 -4 6 11 -4 10 -4 15 0 12 4 -4 16 -2 27 4 17 9 19 8 13 -8 -4 -11 -12
-40 -18 -66 -9 -36 -14 -45 -24 -37 -19 15 -25 -4 -18 -53 6 -40 5 -42 -9 -23
-15 19 -16 18 -15 -22 0 -24 4 -40 9 -37 5 3 9 -2 9 -10 0 -9 -5 -16 -11 -16
-12 0 -6 -111 7 -131 11 -19 26 4 20 32 -3 15 1 40 8 54 13 26 14 26 21 6 3
-11 4 -25 0 -30 -3 -6 -8 -44 -10 -85 -3 -56 0 -91 14 -135 l19 -60 -45 6
c-43 6 -45 4 -93 -45 -60 -62 -75 -108 -67 -212 17 -219 160 -400 315 -400 76
0 76 0 42 147 -31 137 -80 510 -80 615 0 59 4 71 53 178 11 22 39 52 44 46 1
-1 -6 -31 -17 -67 -23 -75 -24 -85 -7 -71 9 8 12 -24 12 -156 0 -171 13 -270
57 -442 17 -67 53 -198 61 -225 2 -5 9 -29 16 -52 6 -23 16 -45 21 -48 6 -3
10 -15 10 -27 0 -21 15 -60 53 -138 12 -24 21 -48 19 -53 -1 -5 2 -6 8 -2 5 3
10 1 10 -4 0 -6 67 -77 149 -159 176 -173 207 -203 244 -227 15 -10 26 -19 24
-22 -5 -5 -140 75 -204 121 -28 20 -55 36 -60 36 -6 0 -6 -20 -2 -52 31 -205
37 -529 11 -573 -26 -46 -27 -46 -57 -35 -24 9 -33 8 -59 -11 -17 -13 -35 -28
-39 -36 -23 -39 -97 22 -97 80 -1 31 -1 32 -18 12 -24 -29 -77 -65 -96 -65 -8
0 -19 -6 -23 -13 -13 -21 -69 -58 -172 -114 -135 -73 -391 -199 -421 -208 -14
-4 -32 -13 -40 -20 -8 -7 -60 -30 -115 -50 -119 -44 -195 -82 -195 -95 0 -6
-4 -9 -10 -7 -11 2 -99 -118 -131 -180 -13 -24 -27 -43 -31 -43 -5 0 -7 -4 -4
-9 4 -5 0 -22 -8 -38 -25 -50 -76 -202 -76 -227 0 -3 902 -6 2004 -6 l2005 0
-20 73 c-43 157 -216 445 -248 414 -10 -9 -12 -8 -9 8 2 12 -2 19 -9 18 -7 -2
-40 10 -75 26 -101 46 -206 91 -213 91 -16 0 -165 64 -165 71 0 5 -35 26 -77
47 -137 68 -208 106 -211 114 -2 5 -8 8 -13 8 -10 0 -128 70 -154 91 -9 8 -24
21 -33 30 -9 9 -41 29 -69 44 -29 15 -53 32 -53 38 0 6 -3 7 -6 4 -4 -4 -1
-13 5 -21 10 -12 9 -22 -4 -48 -78 -154 -352 -268 -643 -268 -78 0 -249 27
-304 49 -33 13 -45 31 -20 31 11 0 39 21 63 46 80 84 80 84 130 84 55 0 81 24
100 94 12 44 54 104 103 149 63 56 102 97 146 152 99 124 185 218 202 223 20
5 24 17 33 106 5 56 9 63 80 143 41 46 84 103 95 126 l21 42 -33 -37 c-61 -67
-86 -98 -80 -98 4 0 -4 -7 -16 -16 -12 -8 -22 -22 -22 -30 0 -8 -4 -12 -10 -9
-5 3 -10 2 -10 -2 0 -12 -75 -99 -132 -155 -77 -74 -123 -92 -221 -86 -96 7
-192 41 -237 87 -17 16 -30 33 -30 37 0 4 -6 15 -14 23 -7 9 -21 41 -31 71
-36 114 -93 202 -122 193 -6 -2 -17 2 -24 9 -8 7 -26 19 -41 27 -14 7 -43 30
-63 51 -30 31 -36 43 -33 73 l3 36 65 -60 c36 -33 77 -67 93 -77 15 -9 27 -22
27 -30 0 -21 65 -44 93 -33 14 6 27 15 29 22 3 10 46 15 149 20 248 12 346 64
462 247 l28 43 -54 -36 c-30 -20 -77 -43 -103 -51 -109 -33 -284 -57 -300 -42
-11 12 75 106 138 150 58 41 59 42 36 54 -13 6 -52 14 -88 17 -58 5 -98 17
-165 47 -41 19 -61 15 -104 -17 -29 -22 -47 -30 -51 -23 -4 6 -12 -22 -19 -62
-19 -121 -55 -156 -141 -143 -14 2 -41 4 -60 4 -27 1 -39 8 -52 29 -9 15 -33
50 -52 77 -20 28 -36 56 -36 63 0 7 -4 10 -10 7 -5 -3 -10 0 -10 7 0 7 -14 31
-30 52 -17 22 -30 44 -30 48 0 5 -12 25 -26 43 -14 19 -28 52 -31 73 -7 51 20
72 92 72 l50 1 -61 28 c-58 27 -80 50 -75 80 1 7 -2 10 -8 6 -10 -6 -9 30 3
90 3 11 5 23 5 26 2 14 64 50 101 58 41 9 41 9 23 -11 -14 -15 -18 -36 -18
-90 0 -68 1 -71 37 -104 32 -29 45 -34 85 -34 60 0 91 16 120 59 33 49 27 149
-10 173 -9 6 -9 8 0 8 16 0 90 -113 98 -150 4 -17 11 -28 16 -24 5 3 6 16 3
30 -9 36 -1 30 36 -27 33 -51 33 -52 25 -133 -9 -95 -13 -198 -7 -192 2 2 23
39 48 82 40 71 44 83 44 146 0 37 -4 68 -9 68 -16 0 -20 54 -10 151 10 104 -1
161 -41 218 -10 14 -28 64 -40 111 -12 47 -27 91 -35 99 -20 20 -146 25 -286
13 -103 -10 -142 -18 -214 -47 -19 -8 -19 -8 -2 12 9 11 17 25 17 31 0 6 8 16
18 21 9 6 14 11 9 11 -22 1 115 133 163 157 19 10 42 23 50 29 50 38 431 159
548 174 40 5 81 14 91 19 38 21 119 33 224 36 59 1 110 5 113 8 13 13 -20 37
-78 59 -54 19 -59 23 -42 35 10 7 14 13 8 13 -5 1 4 8 19 16 42 23 25 29 -28
10 l-47 -15 15 22 c14 21 13 23 -8 34 -17 7 -27 7 -34 0 -14 -14 -27 -1 -36
35 -10 38 41 88 145 143 75 40 80 45 45 39 -47 -8 -118 -41 -111 -53 3 -4 -9
-16 -27 -26 -18 -10 -42 -27 -54 -38 -25 -22 -31 -10 -12 24 10 20 10 20 -18
2 -26 -16 -27 -16 -14 0 17 22 3 22 -21 0 -10 -9 -21 -13 -25 -10 -3 4 15 27
40 52 37 35 41 42 21 35 -33 -13 -57 -13 -49 0 11 17 -11 11 -40 -12 l-27 -21
15 29 c31 58 62 81 139 99 40 10 77 20 82 23 14 8 -18 22 -52 22 -52 0 -93
-25 -142 -86 -48 -60 -85 -89 -73 -57 6 16 5 16 -10 4 -9 -7 -23 -11 -30 -8
-7 3 -21 -1 -32 -9 -40 -29 -45 -15 -13 36 12 19 23 41 24 48 3 15 -18 16 -32
2 -6 -6 -21 -13 -34 -15 -22 -4 -21 -2 11 31 42 44 120 84 222 114 l78 23 -35
12 c-51 18 -132 27 -172 19 -32 -6 -53 -23 -114 -94 -14 -16 -20 -19 -16 -8 3
12 1 15 -10 11 -7 -3 -14 -8 -14 -12 0 -3 -10 -17 -21 -31 -14 -16 -19 -19
-15 -7 3 9 0 17 -5 17 -7 0 -9 11 -7 25 5 24 4 23 -27 -10 -18 -18 -35 -31
-38 -28 -7 6 -54 -46 -74 -81 -15 -26 -16 -21 -4 22 11 35 9 38 -11 20 -8 -7
-23 -21 -34 -31 -20 -17 -21 -17 -18 10 1 16 6 39 10 53 7 25 7 25 -14 6 -12
-11 -22 -15 -22 -10 0 5 -4 5 -8 -1 -13 -18 -62 -59 -62 -52 0 4 19 28 42 53
59 64 58 90 -2 29 -51 -53 -86 -73 -56 -33 9 13 23 37 31 55 20 43 77 88 146
114 33 12 59 23 59 25 0 9 -29 2 -83 -20z m-310 -328 c-3 -8 -6 -5 -6 6 -1 11
2 17 5 13 3 -3 4 -12 1 -19z m-375 -1025 c-3 -16 -7 -22 -10 -15 -4 13 4 42
11 42 2 0 2 -12 -1 -27z m583 -163 c4 -6 -6 -7 -27 -3 -44 8 -48 13 -10 13 17
0 34 -4 37 -10z m-121 -146 c19 -18 53 -34 75 -34 29 0 26 -17 -4 -24 -29 -7
-51 2 -84 38 -16 17 -21 31 -16 43 6 15 8 15 13 3 3 -8 10 -20 16 -26z m854
-616 c7 -7 12 -19 12 -28 0 -31 -83 -86 -154 -103 -69 -16 -217 -25 -282 -16
-30 4 -30 4 -15 31 9 14 19 24 23 22 4 -3 22 3 40 12 18 10 78 25 133 35 55
10 127 27 160 38 75 24 69 23 83 9z"/>
<path d="M2875 4320 l-30 -8 32 -1 c17 0 35 4 38 9 7 11 3 11 -40 0z"/>
<path d="M3125 4300 c3 -5 16 -10 28 -9 21 0 21 1 2 9 -28 12 -37 12 -30 0z"/>
<path d="M1771 4233 c-10 -26 -10 -27 4 -9 8 11 15 23 15 28 0 15 -7 8 -19
-19z"/>
<path d="M2768 4234 c-39 -21 -35 -28 5 -8 37 19 44 24 31 24 -5 -1 -21 -8
-36 -16z"/>
<path d="M2865 4231 c-27 -13 -33 -20 -21 -20 19 -1 19 -2 2 -14 -12 -9 20 -6
100 11 82 16 136 22 174 18 42 -5 51 -3 37 5 -10 6 -71 13 -135 15 -100 3
-123 1 -157 -15z"/>
<path d="M1686 4172 c-2 -4 -1 -14 4 -22 7 -11 9 -9 7 8 -1 24 -3 26 -11 14z"/>
<path d="M2990 4159 c-19 -11 -43 -31 -52 -43 l-17 -23 47 4 47 4 -35 -18 -35
-18 33 -3 c18 -2 30 -7 27 -12 -6 -9 93 -45 102 -36 3 3 40 -13 83 -34 72 -38
118 -48 154 -34 25 10 1 32 -43 40 -20 4 -58 24 -85 45 -56 45 -49 53 10 10
21 -16 50 -32 64 -36 20 -6 17 0 -20 34 l-45 41 47 -27 c25 -16 61 -40 80 -55
24 -19 40 -25 61 -21 37 7 34 19 -8 33 -21 7 -42 24 -56 46 -12 19 -32 42 -45
51 -13 8 -21 20 -17 26 4 6 0 8 -10 4 -9 -3 -19 -1 -23 5 -5 7 -2 8 6 3 8 -5
11 -4 7 2 -4 6 -19 13 -34 15 -16 3 -37 9 -48 13 -18 8 -19 7 -5 -10 14 -17
14 -18 -17 -2 -45 24 -129 22 -173 -4z"/>
<path d="M3315 4135 c52 -40 75 -48 75 -27 0 4 -15 16 -32 27 -18 10 -37 24
-41 32 -4 7 -20 13 -34 13 -23 0 -19 -5 32 -45z"/>
<path d="M3028 3983 c7 -3 16 -2 19 1 4 3 -2 6 -13 5 -11 0 -14 -3 -6 -6z"/>
<path d="M3068 3983 c7 -3 16 -2 19 1 4 3 -2 6 -13 5 -11 0 -14 -3 -6 -6z"/>
<path d="M1581 3944 c0 -11 3 -14 6 -6 3 7 2 16 -1 19 -3 4 -6 -2 -5 -13z"/>
<path d="M1592 3895 c0 -16 2 -22 5 -12 2 9 2 23 0 30 -3 6 -5 -1 -5 -18z"/>
<path d="M3330 3910 c-19 -4 -27 -8 -17 -9 22 -1 22 -21 0 -21 -14 0 -14 -3
-5 -12 10 -10 14 -10 21 0 6 11 14 11 42 -2 21 -9 27 -15 16 -15 -10 -1 -15
-5 -12 -11 7 -11 48 -14 58 -4 7 7 -51 85 -61 83 -4 -1 -23 -5 -42 -9z"/>
<path d="M2947 3890 c17 -4 51 -24 74 -44 23 -20 49 -36 56 -36 8 0 12 -4 9
-8 -2 -4 11 -6 30 -4 18 2 32 8 29 12 -3 5 7 13 22 18 l28 10 -25 1 c-15 1
-31 6 -37 12 -12 12 -113 40 -124 33 -4 -2 -10 0 -14 6 -3 5 -23 10 -43 9
l-37 -1 32 -8z"/>
<path d="M3250 3821 c0 -6 -36 -18 -80 -28 -74 -16 -79 -19 -62 -33 56 -46
125 -132 133 -167 20 -86 67 -644 69 -822 0 -35 9 1 20 79 6 47 29 153 51 235
22 83 45 174 51 203 7 35 14 49 19 40 6 -9 9 -5 10 12 0 14 3 34 6 45 3 11 6
56 6 100 0 75 1 78 13 50 l13 -30 1 28 c0 15 -9 46 -21 68 -11 23 -18 43 -15
46 3 4 -2 12 -12 19 -14 11 -15 13 -2 14 25 0 21 36 -5 50 -28 15 -43 42 -18
33 11 -4 14 -2 9 5 -4 7 -18 12 -31 12 -13 0 -25 4 -27 8 -1 5 -18 12 -37 15
-29 6 -32 5 -26 -11 4 -11 -4 -8 -22 11 -30 28 -43 34 -43 18z m45 -90 c-3 -5
3 -12 13 -15 26 -9 24 -44 -3 -38 l-20 5 20 -22 c11 -12 38 -40 60 -62 l40
-41 -46 26 c-52 30 -67 33 -49 11 11 -13 10 -14 -2 -10 -21 8 -58 78 -58 109
0 18 7 30 23 36 29 12 29 12 22 1z"/>
<path d="M1316 3604 c-10 -25 1 -29 14 -5 6 12 7 21 1 21 -5 0 -12 -7 -15 -16z"/>
<path d="M1370 3605 c0 -8 2 -15 4 -15 2 0 6 7 10 15 3 8 1 15 -4 15 -6 0 -10
-7 -10 -15z"/>
<path d="M1317 3483 c-4 -3 -7 -11 -7 -17 0 -6 5 -5 12 2 6 6 9 14 7 17 -3 3
-9 2 -12 -2z"/>
<path d="M1355 3453 c-29 -43 -34 -67 -6 -32 22 29 44 69 37 69 -3 0 -17 -17
-31 -37z"/>
<path d="M1441 3434 c0 -11 3 -14 6 -6 3 7 2 16 -1 19 -3 4 -6 -2 -5 -13z"/>
<path d="M2770 3407 c-41 -7 -80 -14 -85 -16 -6 -2 -20 -7 -32 -12 -13 -5 -23
-13 -23 -19 0 -6 -4 -8 -10 -5 -6 4 -10 -11 -10 -39 0 -25 5 -48 10 -51 22
-14 127 -13 195 0 84 16 253 19 307 4 22 -5 58 -28 83 -52 40 -39 44 -41 38
-17 -10 43 -50 114 -80 142 -51 49 -118 71 -223 74 -52 2 -129 -2 -170 -9z"/>
<path d="M1365 3318 c-4 -18 -2 -44 4 -58 8 -21 10 -16 10 33 1 64 -5 74 -14
25z"/>
<path d="M2302 3270 c0 -14 2 -19 5 -12 2 6 2 18 0 25 -3 6 -5 1 -5 -13z"/>
<path d="M2731 3161 c-18 -8 -34 -25 -37 -38 -7 -24 22 -113 35 -113 4 0 16
10 27 21 10 12 42 32 69 45 72 34 152 33 230 -4 33 -16 66 -36 74 -45 18 -23
11 -21 -45 10 -39 22 -64 28 -135 31 -52 3 -102 -1 -125 -8 -44 -14 -99 -69
-113 -115 -8 -25 -8 -27 2 -11 29 46 70 85 100 95 l32 11 -33 -28 c-59 -49
-65 -156 -12 -207 16 -15 34 -25 42 -22 9 4 7 6 -4 6 -17 1 -48 57 -48 87 0
23 20 16 30 -10 21 -57 88 -62 136 -10 30 31 34 33 34 14 0 -31 -17 -58 -48
-74 -19 -11 -22 -15 -10 -16 10 0 32 13 50 29 30 27 33 34 33 89 0 71 -23 104
-84 121 -32 9 -29 10 34 8 99 -4 157 -33 182 -92 9 -24 21 -41 25 -39 13 8 9
43 -9 77 -9 18 -16 36 -15 41 2 4 -3 14 -9 22 -6 8 -8 14 -5 14 10 0 -13 21
-50 47 -37 26 -164 62 -255 72 -50 5 -74 3 -98 -8z m214 -182 c4 -6 5 -12 4
-13 -8 -7 -69 7 -69 15 0 13 57 11 65 -2z"/>
<path d="M3457 2912 c-20 -21 -37 -42 -37 -47 0 -5 5 -4 12 3 7 7 19 12 28 12
20 0 62 -34 53 -44 -3 -3 1 -6 10 -6 24 0 25 105 1 114 -25 10 -28 8 -67 -32z"/>
<path d="M3372 2779 c-9 -18 -10 -33 -2 -59 5 -19 10 -47 10 -62 0 -29 6 -33
27 -20 11 7 9 27 -15 131 l-7 33 -13 -23z"/>
<path d="M2888 2773 c7 -3 16 -2 19 1 4 3 -2 6 -13 5 -11 0 -14 -3 -6 -6z"/>
<path d="M3312 2730 c0 -14 2 -19 5 -12 2 6 2 18 0 25 -3 6 -5 1 -5 -13z"/>
<path d="M2940 2361 c0 -5 9 -13 20 -16 12 -4 29 -16 40 -27 20 -22 43 -17 33
8 -10 28 -93 59 -93 35z"/>
<path d="M3275 2360 c-6 -9 62 -26 70 -18 3 3 -11 9 -30 15 -19 6 -37 7 -40 3z"/>
</g>
</svg>
