<?xml version="1.0" standalone="no"?>
<!DOCTYPE svg PUBLIC "-//W3C//DTD SVG 20010904//EN"
 "http://www.w3.org/TR/2001/REC-SVG-20010904/DTD/svg10.dtd">
<svg version="1.0" xmlns="http://www.w3.org/2000/svg"
 width="142.000000pt" height="141.000000pt" viewBox="0 0 142.000000 141.000000"
 preserveAspectRatio="xMidYMid meet">

<g transform="translate(0.000000,141.000000) scale(0.100000,-0.100000)"
fill="#000000" stroke="none">
<path d="M615 1125 c-42 -46 -70 -87 -75 -109 -10 -45 3 -113 25 -134 14 -13
16 -14 11 -2 -4 8 4 2 18 -13 14 -15 26 -23 26 -17 0 6 5 8 10 5 6 -3 10 -1
10 4 0 6 6 11 14 11 8 0 17 4 20 9 4 5 -9 5 -30 1 -20 -5 -33 -6 -30 -3 6 6
-17 32 -24 28 -3 -2 -6 17 -8 43 -4 59 13 99 45 107 14 3 23 9 19 12 -10 10
34 63 53 63 20 0 64 -43 54 -53 -3 -4 -27 -8 -52 -8 -40 -1 -37 -3 24 -10 38
-5 74 -14 79 -19 14 -14 26 -103 15 -115 -5 -5 -9 -15 -9 -22 0 -8 -9 -24 -21
-36 -15 -17 -19 -18 -14 -4 5 12 2 17 -9 17 -13 0 -15 -4 -6 -19 5 -11 16 -23
23 -27 6 -4 9 -4 5 0 -7 8 33 52 43 49 15 -5 40 87 33 122 -9 50 -133 195
-167 195 -8 0 -45 -34 -82 -75z"/>
<path d="M653 973 c20 -2 54 -2 75 0 20 2 3 4 -38 4 -41 0 -58 -2 -37 -4z"/>
<path d="M670 784 c0 -13 3 -14 13 -5 8 6 18 7 22 3 5 -4 5 -1 1 6 -10 18 -36
15 -36 -4z"/>
<path d="M713 750 c-11 -16 -10 -18 1 -14 15 6 30 34 18 34 -4 0 -13 -9 -19
-20z"/>
<path d="M630 278 c0 -18 52 -68 71 -68 17 0 69 53 69 71 0 10 -23 7 -54 -6
-11 -5 -26 -3 -37 3 -24 15 -49 15 -49 0z"/>
</g>
</svg>
