<?xml version="1.0" standalone="no"?>
<!DOCTYPE svg PUBLIC "-//W3C//DTD SVG 20010904//EN"
 "http://www.w3.org/TR/2001/REC-SVG-20010904/DTD/svg10.dtd">
<svg version="1.0" xmlns="http://www.w3.org/2000/svg"
 width="452.000000pt" height="420.000000pt" viewBox="0 0 452.000000 420.000000"
 preserveAspectRatio="xMidYMid meet">

<g transform="translate(0.000000,420.000000) scale(0.100000,-0.100000)"
fill="#000000" stroke="none">
<path d="M1970 3965 c-8 -2 -55 -9 -105 -15 -562 -74 -1073 -387 -1411 -865
-106 -148 -133 -217 -99 -245 26 -21 56 -14 175 43 272 129 530 188 835 188
314 1 570 -56 843 -186 582 -279 966 -786 1088 -1435 25 -136 30 -435 9 -583
-32 -224 -96 -429 -196 -628 -22 -45 -39 -90 -37 -102 2 -12 15 -28 30 -37 26
-14 31 -13 75 10 115 60 287 189 414 311 266 256 484 637 567 990 46 193 55
278 55 494 0 271 -30 455 -113 686 -264 740 -915 1264 -1693 1364 -100 13
-389 19 -437 10z m326 -125 c920 -73 1658 -770 1780 -1680 18 -137 18 -388 -1
-518 -63 -441 -264 -838 -576 -1137 -75 -72 -209 -182 -209 -172 0 2 11 30 24
63 97 239 148 593 126 877 -59 755 -495 1396 -1172 1722 -406 195 -855 252
-1299 165 -53 -11 -116 -26 -140 -35 -163 -58 -250 -85 -259 -80 -17 11 -11
34 14 50 13 9 78 69 143 133 277 275 524 430 846 530 243 76 471 102 723 82z"/>
</g>
</svg>
